<svg width="24" height="24" viewBox="0 0 24 24" fill="none" xmlns="http://www.w3.org/2000/svg">
<g clip-path="url(#clip0_111_868)">
<path fill-rule="evenodd" clip-rule="evenodd" d="M9.20027 3.64099C8.70225 4.13901 8.42247 4.81448 8.42247 5.51878L8.42247 17.0148C8.42247 18.1886 8.88874 19.3143 9.71871 20.1443C10.5487 20.9742 11.6744 21.4405 12.8481 21.4405C14.0219 21.4405 15.1476 20.9742 15.9775 20.1443C16.8075 19.3143 17.2738 18.1886 17.2738 17.0148V5.51878C17.2738 5.03026 17.6698 4.63424 18.1583 4.63424C18.6469 4.63424 19.0429 5.03026 19.0429 5.51878V17.0148C19.0429 18.6578 18.3902 20.2335 17.2285 21.3952C16.0667 22.5569 14.4911 23.2096 12.8481 23.2096C11.2052 23.2096 9.62952 22.5569 8.46778 21.3952C7.30604 20.2335 6.65338 18.6578 6.65338 17.0148L6.65338 5.51878C6.65338 4.34528 7.11955 3.21985 7.94934 2.39006C8.77913 1.56027 9.90456 1.0941 11.0781 1.0941C12.2516 1.0941 13.377 1.56027 14.2068 2.39006C15.0366 3.21985 15.5027 4.34528 15.5027 5.51878L15.4965 17.0211C15.4965 17.7251 15.2168 18.4004 14.719 18.8982C14.2211 19.396 13.5459 19.6757 12.8419 19.6757C12.1378 19.6757 11.4626 19.396 10.9648 18.8982C10.4669 18.4004 10.1873 17.7251 10.1873 17.0211L10.1935 6.40642C10.1938 5.9179 10.5901 5.52211 11.0786 5.5224C11.5671 5.52269 11.9629 5.91895 11.9626 6.40747L11.9563 17.0211C11.9565 17.2558 12.0498 17.4813 12.2157 17.6473C12.3818 17.8133 12.607 17.9066 12.8419 17.9066C13.0767 17.9066 13.302 17.8133 13.468 17.6473C13.6341 17.4812 13.7274 17.256 13.7274 17.0211L13.7337 5.51878C13.7335 4.81465 13.4538 4.1389 12.9558 3.64099C12.4578 3.14297 11.7824 2.86319 11.0781 2.86319C10.3738 2.86319 9.69829 3.14297 9.20027 3.64099Z" fill="#5A5A5A"/>
</g>
<defs>
<clipPath id="clip0_111_868">
<rect width="24" height="24" fill="white"/>
</clipPath>
</defs>
</svg>
