<svg version="1.1" id="Layer_1" xmlns="http://www.w3.org/2000/svg" xmlns:xlink="http://www.w3.org/1999/xlink" x="0px" y="0px"
	 width="100%" viewBox="0 0 512 512" enable-background="new 0 0 512 512" xml:space="preserve">
<path fill="#000000" opacity="1.000000" stroke="none" 
	d="
M234.000000,1.000000 
	C251.687561,1.000000 269.375122,1.000000 287.807129,1.205119 
	C291.416962,3.597100 294.991119,2.877064 298.154297,3.368641 
	C326.812042,7.822265 353.658051,17.269318 379.190521,30.960918 
	C410.107117,47.539715 436.328766,69.639839 458.123871,96.982925 
	C480.558441,125.128273 496.413330,156.653366 505.559448,191.524490 
	C509.221436,205.486572 511.435547,219.681229 513.000000,234.000000 
	C513.000000,249.020889 513.000000,264.041779 512.971313,279.931580 
	C511.764862,288.812775 510.730347,296.849213 509.382812,304.832855 
	C505.205536,329.582062 496.823822,352.960083 485.288818,375.148376 
	C475.932159,393.146484 464.743591,409.983398 451.199219,425.210815 
	C438.691467,439.272797 425.276642,452.327118 410.100708,463.483643 
	C394.946045,474.624481 378.840576,484.134308 361.609314,491.778107 
	C343.331848,499.885986 324.467560,505.900208 304.792694,509.546295 
	C299.515442,510.524261 293.874725,510.115417 289.000000,513.000000 
	C267.979095,513.000000 246.958206,513.000000 225.273911,512.740601 
	C216.226227,510.791351 207.836288,509.129089 199.458786,507.406250 
	C178.009827,502.995209 157.776718,495.114288 138.410446,485.116699 
	C124.243805,477.803345 110.853828,469.142792 98.314270,459.209930 
	C83.272217,447.294769 69.660233,433.921021 57.557713,419.070160 
	C42.701534,400.840240 30.558922,380.901917 21.225376,359.285950 
	C13.640082,341.718811 7.943763,323.597443 4.469146,304.741302 
	C3.500172,299.482880 4.057950,293.815186 1.000000,289.000000 
	C1.000000,270.979095 1.000000,252.958206 1.016983,234.067764 
	C1.596530,228.436966 2.030964,223.656464 2.742797,218.917633 
	C6.843932,191.615479 15.095811,165.589630 27.506344,140.954269 
	C43.726917,108.755867 65.924942,81.102707 93.723663,58.303787 
	C122.711945,34.529270 155.491638,17.647108 191.958755,8.263565 
	C205.780701,4.706964 219.841751,2.584424 234.000000,1.000000 
M408.168915,85.358688 
	C407.221039,84.421425 406.337250,83.407005 405.315887,82.558121 
	C376.617126,58.706642 344.299408,42.109825 307.865509,33.581665 
	C291.479034,29.746042 274.820068,27.826807 258.121246,27.644325 
	C246.774597,27.520332 235.316162,28.487036 223.955185,30.258553 
	C201.311600,33.789368 179.582596,40.137997 158.981598,50.088631 
	C131.319366,63.449955 107.024155,81.305992 86.558289,104.426079 
	C74.262062,118.317017 63.421345,133.160706 54.855461,149.533905 
	C35.722984,186.104568 26.135811,224.880295 28.179926,266.424225 
	C28.712284,277.243713 29.643091,287.965210 31.650736,298.522614 
	C40.461643,344.855621 61.769711,384.773010 94.737854,418.384888 
	C108.272255,432.183594 123.593727,443.865265 140.179413,453.842926 
	C159.688629,465.579376 180.529190,474.197845 202.625488,479.512115 
	C224.270172,484.717743 246.187820,487.112244 268.588379,485.810272 
	C283.918152,484.919281 298.951843,482.710999 313.705750,478.898346 
	C333.399811,473.809082 352.138428,466.227875 369.868713,456.037354 
	C397.636963,440.077454 421.249329,419.502167 440.381348,393.879944 
	C459.826721,367.838074 473.183777,338.918060 480.555725,307.212555 
	C484.368988,290.812286 486.256256,274.132996 486.357086,257.423248 
	C486.423492,246.416443 485.487915,235.291885 483.795929,224.257584 
	C480.399719,202.109024 474.316559,180.807266 464.751831,160.613953 
	C451.166168,131.931534 432.919403,106.610878 408.168915,85.358688 
z"/>
<path fill="#000000" opacity="1.000000" stroke="none" 
	d="
M251.120789,229.855927 
	C251.719299,230.464523 252.120529,230.783585 252.413101,231.182373 
	C255.324524,235.150833 257.892395,235.354401 261.433990,231.430252 
	C267.230194,225.007919 273.590729,219.094467 279.719940,212.973068 
	C295.750275,196.963135 311.759338,180.931778 327.835999,164.968536 
	C331.394501,161.435120 335.163818,158.356842 340.781281,158.556839 
	C347.795319,158.806519 351.546997,160.520279 353.462952,166.076431 
	C355.400787,171.695999 355.040039,177.146103 350.446747,181.727493 
	C329.921356,202.199829 309.438110,222.714386 288.940887,243.214981 
	C286.113770,246.042587 283.451965,249.061584 280.427460,251.658707 
	C277.156311,254.467590 277.714722,256.460571 280.578705,259.301178 
	C300.924927,279.481079 321.122131,299.811279 341.363892,320.096497 
	C344.188293,322.926971 346.682037,326.210419 349.882599,328.515259 
	C355.432343,332.511810 355.766052,343.473267 351.536255,348.467590 
	C347.526581,353.201996 338.419647,353.897491 332.347809,349.730774 
	C330.445740,348.425507 328.719086,346.820038 327.078674,345.184875 
	C305.130646,323.307068 283.149536,301.461578 261.353149,279.433380 
	C258.033264,276.078186 256.058624,275.870758 252.610718,279.367523 
	C230.619476,301.670563 208.418579,323.767212 186.238739,345.883698 
	C182.565079,349.546875 178.701660,352.742950 172.854828,352.465759 
	C167.219940,352.198578 162.815491,350.546661 160.498444,345.024963 
	C158.337280,339.874756 159.473511,333.335449 163.461227,329.334778 
	C182.630493,310.103363 201.830032,290.902161 221.020096,271.691467 
	C224.905243,267.802124 228.797928,263.920288 232.683517,260.031372 
	C237.269913,255.441025 237.266495,255.441025 232.501236,250.675354 
	C209.764862,227.936813 187.098816,205.127197 164.235809,182.516708 
	C159.614426,177.946365 158.626312,172.703934 160.112732,167.006165 
	C162.080750,159.462326 172.121216,155.879181 179.472015,159.830460 
	C181.637573,160.994537 183.709915,162.520172 185.452454,164.254425 
	C207.299133,185.997421 229.077316,207.809219 251.120789,229.855927 
z"/>
</svg>