<svg version="1.1" id="Layer_1" xmlns="http://www.w3.org/2000/svg" xmlns:xlink="http://www.w3.org/1999/xlink" x="0px" y="0px"
	 width="100%" viewBox="0 0 512 512" enable-background="new 0 0 512 512" xml:space="preserve">
<path fill="#FFFFFF" opacity="1.000000" stroke="none" 
	d="
M513.000000,127.000000 
	C513.000000,255.604172 513.000000,384.208344 513.000000,513.000000 
	C348.309296,513.000000 183.618530,513.000000 18.586386,512.665588 
	C19.170835,512.166687 20.096670,512.002136 21.281960,511.863556 
	C21.728676,511.608551 21.915936,511.327667 22.063053,511.035767 
	C22.022909,511.024750 22.057337,511.100586 22.457634,511.054993 
	C35.907906,507.283569 48.957882,503.557800 62.395508,499.892670 
	C63.689495,499.633972 64.582687,499.269196 65.504143,499.001984 
	C80.668968,494.604553 95.837364,490.219391 111.392792,485.894470 
	C118.554863,483.970886 125.342461,482.028564 132.100189,479.987366 
	C142.079361,476.973206 152.037262,473.888672 162.401001,470.903870 
	C166.694641,469.921112 170.653381,469.051239 174.469284,467.759491 
	C177.649124,466.683075 181.328766,465.815918 183.630112,463.635162 
	C192.680695,455.058868 201.274170,446.000183 210.346680,436.983765 
	C215.004364,432.829071 219.494415,428.952820 223.677017,424.769165 
	C243.843918,404.597229 263.928009,384.342468 284.350769,363.981049 
	C299.100983,349.403168 313.506104,334.925354 327.997284,320.534210 
	C335.599487,312.984497 343.352448,305.586548 351.347229,297.984436 
	C364.941833,284.562469 378.248505,271.298096 391.504791,257.983521 
	C404.043182,245.390015 416.528687,232.743851 429.347534,219.985367 
	C443.286072,206.549927 456.955597,193.291687 470.528931,179.935684 
	C480.000549,170.615692 489.604858,161.406433 498.622498,151.659775 
	C502.846924,147.093872 506.027039,141.497650 509.285950,136.128952 
	C510.969086,133.356171 511.789673,130.059799 513.000000,127.000000 
z"/>
<path fill="#FFFFFF" opacity="1.000000" stroke="none" 
	d="
M1.000003,496.000000 
	C1.000000,331.080170 1.000000,166.160339 1.000000,1.000000 
	C129.357315,1.000000 257.714783,1.000000 386.393860,1.361443 
	C383.313629,2.869854 379.911804,4.016821 376.129364,5.126347 
	C372.625763,7.100629 369.043701,8.647095 366.455444,11.200798 
	C351.470337,25.985649 336.719482,41.007946 321.582642,56.077377 
	C297.475708,80.346855 273.693542,104.506607 249.868835,128.624359 
	C234.906189,143.771042 219.879745,158.854691 204.575699,174.091400 
	C185.807678,193.130432 167.345856,212.044647 148.578537,231.087265 
	C130.138992,249.461609 112.004944,267.707581 93.564827,286.085052 
	C88.396698,291.085968 83.480530,295.902710 78.684364,300.836151 
	C69.903679,309.868134 61.350536,319.128326 52.373055,327.958374 
	C49.041962,331.234741 47.249416,335.004120 46.044849,339.250153 
	C37.601067,369.014099 29.167667,398.781067 20.785595,428.562439 
	C18.417688,436.975555 16.231644,445.439850 13.717473,453.973572 
	C13.369917,454.368652 13.267073,454.670868 13.091471,455.297852 
	C12.977106,456.063965 12.935499,456.505310 12.561734,457.146606 
	C8.486386,470.231049 4.743196,483.115509 1.000003,496.000000 
z"/>
<path fill="#FFFFFF" opacity="1.000000" stroke="none" 
	d="
M407.000000,0.999999 
	C442.260284,1.000000 477.520538,1.000000 513.000000,1.000000 
	C513.000000,36.020588 513.000000,71.041634 512.640259,106.399597 
	C509.485901,94.451187 502.399353,84.931992 492.914917,76.571350 
	C483.875763,67.470818 474.959259,58.678097 465.918884,49.577591 
	C457.209106,40.806110 448.623230,32.342415 439.913330,23.571648 
	C435.078796,18.897869 430.731171,14.022721 425.545685,10.321387 
	C421.206512,7.224132 415.887909,5.499023 410.685150,3.017388 
	C409.244843,2.245642 408.122437,1.622820 407.000000,0.999999 
z"/>
<path fill="#333E44" opacity="1.000000" stroke="none" 
	d="
M493.037567,76.879166 
	C502.399353,84.931992 509.485901,94.451187 512.640259,106.868256 
	C513.000000,113.354401 513.000000,119.708794 513.000000,126.531601 
	C511.789673,130.059799 510.969086,133.356171 509.285950,136.128952 
	C506.027039,141.497650 502.846924,147.093872 498.622498,151.659775 
	C489.604858,161.406433 480.000549,170.615692 470.528931,179.935684 
	C456.955597,193.291687 443.286072,206.549927 429.336884,219.557922 
	C429.571503,216.730270 429.703156,214.002029 430.753448,211.691345 
	C436.091980,199.946457 441.717499,188.332428 447.133759,176.622253 
	C448.909576,172.782898 450.358704,168.792435 452.106262,164.581238 
	C462.159027,154.401550 472.311127,144.742371 481.828888,134.494019 
	C485.063538,131.011108 487.448181,126.280792 488.901489,121.701622 
	C491.523468,113.440254 487.489777,106.548470 482.955933,99.973480 
	C486.529297,92.153709 489.783417,84.516434 493.037567,76.879166 
z"/>
<path fill="#555F63" opacity="1.000000" stroke="none" 
	d="
M1.000003,496.470459 
	C4.743196,483.115509 8.486386,470.231049 12.829530,457.335693 
	C13.640886,458.505219 13.852290,459.685608 14.230976,461.800110 
	C15.432444,460.196686 16.348513,459.315552 16.858303,458.241516 
	C22.548210,446.254303 28.186808,434.242645 33.816868,422.227112 
	C43.085743,402.445709 52.313583,382.644989 61.675705,362.907898 
	C62.108334,361.995850 63.682327,361.625214 64.694199,361.366150 
	C63.992462,363.895233 63.275200,366.047485 62.657146,368.227875 
	C55.799438,392.420746 48.957088,416.617981 42.035057,441.203125 
	C37.922867,455.535950 33.886211,469.479675 29.562178,484.416107 
	C33.304150,483.367157 35.655582,482.708038 37.999435,482.424072 
	C33.376278,491.728668 32.095284,502.587128 22.875872,508.879547 
	C22.345036,509.241913 22.318544,510.343201 22.057331,511.100586 
	C22.057337,511.100586 22.022909,511.024750 21.840078,511.102478 
	C21.365810,511.322266 21.154228,511.541412 21.022503,511.837646 
	C20.096670,512.002136 19.170835,512.166687 18.122501,512.665588 
	C12.407916,513.000000 6.815833,513.000000 1.000000,513.000000 
	C1.000000,507.649017 1.000000,502.294983 1.000003,496.470459 
z"/>
<path fill="#444E54" opacity="1.000000" stroke="none" 
	d="
M406.531616,0.999999 
	C408.122437,1.622820 409.244843,2.245642 410.691956,3.391664 
	C410.717926,6.520859 410.785339,9.236842 410.042450,11.709392 
	C408.604187,16.496387 406.709686,21.146317 404.596558,25.790092 
	C393.860657,23.270796 384.812958,25.389730 377.312103,33.177700 
	C371.568024,39.141644 365.779266,45.062527 359.736145,50.770126 
	C359.817322,48.674156 359.816711,46.647091 360.585541,44.973469 
	C365.856110,33.500141 371.370758,22.138309 376.567169,10.632345 
	C377.247711,9.125451 376.562561,7.001782 376.509949,5.163790 
	C379.911804,4.016821 383.313629,2.869854 386.857727,1.361443 
	C393.354401,1.000000 399.708801,1.000000 406.531616,0.999999 
z"/>
<path fill="#384348" opacity="1.000000" stroke="none" 
	d="
M451.957245,164.871094 
	C450.358704,168.792435 448.909576,172.782898 447.133759,176.622253 
	C441.717499,188.332428 436.091980,199.946457 430.753448,211.691345 
	C429.703156,214.002029 429.571503,216.730270 429.026794,219.693390 
	C416.528687,232.743851 404.043182,245.390015 391.504791,257.983521 
	C378.248505,271.298096 364.941833,284.562469 351.342041,297.589172 
	C351.658112,295.279175 352.067108,293.126587 352.955780,291.194641 
	C359.688080,276.558350 366.557495,261.984955 373.248779,247.330154 
	C373.964996,245.761566 373.813934,243.796951 374.198608,241.714020 
	C387.604126,227.796494 400.876160,214.181000 415.386963,199.294662 
	C410.734375,195.161407 405.671906,190.664017 400.954346,186.014954 
	C402.284821,184.395889 403.420807,183.006409 404.228394,181.446869 
	C406.922699,176.243973 409.499298,170.980103 412.411713,165.914597 
	C417.992554,171.348312 423.383636,176.510880 428.526398,181.909958 
	C430.792572,184.289062 432.296722,184.213013 434.564148,181.891342 
	C440.230347,176.089493 446.143311,170.528656 451.957245,164.871094 
z"/>
<path fill="#404B50" opacity="1.000000" stroke="none" 
	d="
M284.041443,364.117126 
	C263.928009,384.342468 243.843918,404.597229 223.677017,424.769165 
	C219.494415,428.952820 215.004364,432.829071 210.340057,436.605835 
	C211.776382,433.047821 213.661987,429.793762 215.257935,426.403320 
	C222.222031,411.608887 229.121277,396.783722 235.959839,381.930939 
	C236.331161,381.124481 235.939941,379.966888 236.051254,378.670227 
	C243.488480,370.983673 250.778137,363.599609 258.370667,356.060425 
	C275.407349,339.494690 292.141205,323.084137 308.905792,307.070557 
	C308.654602,308.578003 308.542297,309.767975 308.064941,310.786896 
	C302.286743,323.119751 296.363220,335.385315 290.679443,347.761139 
	C288.226257,353.102661 286.239868,358.658569 284.041443,364.117126 
z"/>
<path fill="#485257" opacity="1.000000" stroke="none" 
	d="
M162.004211,470.834137 
	C152.037262,473.888672 142.079361,476.973206 132.100189,479.987366 
	C125.342461,482.028564 118.554863,483.970886 111.436325,485.559814 
	C120.091042,477.863647 123.205017,467.240540 127.312675,456.791687 
	C138.468842,453.433655 149.275238,450.147247 160.179977,447.228302 
	C163.213882,446.416229 164.152985,445.118958 164.018738,442.104889 
	C163.789398,436.955750 163.473480,431.731781 164.072708,426.642731 
	C164.987854,418.870819 163.208191,413.135468 155.056488,410.460632 
	C158.076355,403.373993 161.049271,396.642975 164.381042,389.964417 
	C166.976440,391.095337 169.116013,392.499725 171.465439,393.198608 
	C185.163925,397.273529 189.181244,406.791962 186.534363,420.065063 
	C183.131104,426.086456 179.892563,431.966278 177.034836,438.025696 
	C171.903992,448.904938 167.001907,459.892090 162.004211,470.834137 
z"/>
<path fill="#3C474C" opacity="1.000000" stroke="none" 
	d="
M284.350769,363.981018 
	C286.239868,358.658569 288.226257,353.102661 290.679443,347.761139 
	C296.363220,335.385315 302.286743,323.119751 308.064941,310.786896 
	C308.542297,309.767975 308.654602,308.578003 309.058838,306.789307 
	C322.024017,293.332367 334.838684,280.525116 347.719635,267.784851 
	C356.453308,259.146576 365.280060,250.602356 374.065155,242.016052 
	C373.813934,243.796951 373.964996,245.761566 373.248779,247.330154 
	C366.557495,261.984955 359.688080,276.558350 352.955780,291.194641 
	C352.067108,293.126587 351.658112,295.279175 351.032104,297.724823 
	C343.352448,305.586548 335.599487,312.984497 327.997284,320.534210 
	C313.506104,334.925354 299.100983,349.403168 284.350769,363.981018 
z"/>
<path fill="#444E54" opacity="1.000000" stroke="none" 
	d="
M162.400986,470.903870 
	C167.001907,459.892090 171.903992,448.904938 177.034836,438.025696 
	C179.892563,431.966278 183.131104,426.086456 186.598602,420.465485 
	C187.085999,422.391663 187.172806,423.978088 187.311523,426.513000 
	C189.234741,424.751984 190.564148,423.608154 191.811737,422.381134 
	C206.516144,407.918854 221.208298,393.444153 235.903702,378.972748 
	C235.939941,379.966888 236.331161,381.124481 235.959839,381.930939 
	C229.121277,396.783722 222.222031,411.608887 215.257935,426.403320 
	C213.661987,429.793762 211.776382,433.047821 210.030716,436.742615 
	C201.274170,446.000183 192.680695,455.058868 183.630112,463.635162 
	C181.328766,465.815918 177.649124,466.683075 174.469284,467.759491 
	C170.653381,469.051239 166.694641,469.921112 162.400986,470.903870 
z"/>
<path fill="#4C565A" opacity="1.000000" stroke="none" 
	d="
M127.000076,457.002197 
	C123.205017,467.240540 120.091042,477.863647 111.048492,485.496826 
	C95.837364,490.219391 80.668968,494.604553 65.504143,499.001984 
	C64.582687,499.269196 63.689495,499.633972 62.439568,499.553528 
	C62.446796,498.609375 62.668465,497.837769 63.167461,497.554169 
	C73.600464,491.625275 75.144608,480.512787 79.190033,470.474304 
	C95.317627,465.837219 111.158852,461.419708 127.000076,457.002197 
z"/>
<path fill="#515B60" opacity="1.000000" stroke="none" 
	d="
M78.903664,470.693848 
	C75.144608,480.512787 73.600464,491.625275 63.167461,497.554169 
	C62.668465,497.837769 62.446796,498.609375 62.051918,499.492859 
	C48.957882,503.557800 35.907906,507.283569 22.457630,511.054993 
	C22.318544,510.343201 22.345036,509.241913 22.875872,508.879547 
	C32.095284,502.587128 33.376278,491.728668 38.381859,482.362854 
	C50.509056,478.376465 62.246246,474.826447 74.397545,471.274597 
	C76.175652,471.079773 77.539658,470.886810 78.903664,470.693848 
z"/>
<path fill="#515B60" opacity="1.000000" stroke="none" 
	d="
M21.281960,511.863556 
	C21.154228,511.541412 21.365810,511.322266 21.880222,511.113495 
	C21.915936,511.327667 21.728676,511.608551 21.281960,511.863556 
z"/>
<path fill="#4C565A" opacity="1.000000" stroke="none" 
	d="
M204.881927,173.966614 
	C219.879745,158.854691 234.906189,143.771042 249.868835,128.624359 
	C273.693542,104.506607 297.475708,80.346855 321.911163,56.244495 
	C322.690399,58.205421 323.559418,60.454082 322.863251,61.996067 
	C317.428833,74.032860 311.561859,85.874603 306.147614,97.920036 
	C304.856506,100.792397 304.767029,104.204872 303.979218,107.653107 
	C295.182159,116.845581 286.530792,125.753876 277.579529,134.832031 
	C268.591064,143.445587 259.774963,151.762680 251.239914,160.358810 
	C232.454987,179.278214 213.812012,198.338562 195.085144,216.933716 
	C195.649536,214.478287 196.006012,212.325500 196.870224,210.400665 
	C200.863007,201.507568 205.050705,192.702103 209.060287,183.816345 
	C211.458633,178.501282 213.657318,173.096115 216.268448,166.974991 
	C211.850510,169.687729 208.366211,171.827179 204.881927,173.966614 
z"/>
<path fill="#576166" opacity="1.000000" stroke="none" 
	d="
M64.724731,361.002411 
	C63.682327,361.625214 62.108334,361.995850 61.675705,362.907898 
	C52.313583,382.644989 43.085743,402.445709 33.816868,422.227112 
	C28.186808,434.242645 22.548210,446.254303 16.858303,458.241516 
	C16.348513,459.315552 15.432444,460.196686 14.230976,461.800110 
	C13.852290,459.685608 13.640886,458.505219 13.161688,457.135742 
	C12.935499,456.505310 12.977106,456.063965 13.285746,455.166626 
	C13.779224,454.478363 13.915692,454.201721 13.962183,453.880676 
	C16.231644,445.439850 18.417688,436.975555 20.785595,428.562439 
	C29.167667,398.781067 37.601067,369.014099 46.044849,339.250153 
	C47.249416,335.004120 49.041962,331.234741 52.373055,327.958374 
	C61.350536,319.128326 69.903679,309.868134 78.684364,300.836151 
	C83.480530,295.902710 88.396698,291.085968 93.959129,286.097900 
	C96.883018,285.180725 99.106522,284.382263 101.961983,283.356842 
	C101.587090,284.759979 101.443428,285.981567 100.950401,287.040466 
	C93.554253,302.925751 86.019829,318.747498 78.735733,334.683685 
	C76.488884,339.599335 74.895081,344.813477 72.597046,349.970581 
	C69.145096,349.652191 67.313759,350.622925 66.825134,353.994354 
	C66.479134,356.381714 65.449310,358.669922 64.724731,361.002411 
z"/>
<path fill="#555F63" opacity="1.000000" stroke="none" 
	d="
M73.002274,349.890930 
	C74.895081,344.813477 76.488884,339.599335 78.735733,334.683685 
	C86.019829,318.747498 93.554253,302.925751 100.950401,287.040466 
	C101.443428,285.981567 101.587090,284.759979 101.961983,283.356842 
	C99.106522,284.382263 96.883018,285.180725 94.265205,285.966370 
	C112.004944,267.707581 130.138992,249.461609 148.972946,231.098434 
	C151.631729,230.495193 153.590591,230.009171 156.082108,229.390991 
	C155.613922,230.941254 155.422195,232.050858 154.960281,233.033447 
	C149.161743,245.368576 143.249771,257.651337 137.582397,270.046021 
	C136.796402,271.764984 137.168564,274.013458 136.871979,276.321838 
	C120.464920,293.054016 104.190422,309.481171 86.926262,326.907257 
	C92.324303,326.907257 96.124512,326.667633 99.880257,326.973633 
	C103.752739,327.289154 107.581940,328.135864 111.086052,328.919678 
	C107.866348,334.406494 105.034126,339.748047 102.090782,345.027618 
	C101.096382,346.811310 99.820503,348.438080 98.225136,350.131958 
	C89.518761,350.048553 81.260521,349.969727 73.002274,349.890930 
z"/>
<path fill="#485257" opacity="1.000000" stroke="none" 
	d="
M304.124878,107.368927 
	C304.767029,104.204872 304.856506,100.792397 306.147614,97.920036 
	C311.561859,85.874603 317.428833,74.032860 322.863251,61.996067 
	C323.559418,60.454082 322.690399,58.205421 322.217896,56.117004 
	C336.719482,41.007946 351.470337,25.985649 366.455444,11.200798 
	C369.043701,8.647095 372.625763,7.100629 376.129333,5.126348 
	C376.562561,7.001782 377.247711,9.125451 376.567169,10.632345 
	C371.370758,22.138309 365.856110,33.500141 360.585541,44.973469 
	C359.816711,46.647091 359.817322,48.674156 359.596008,51.072338 
	C349.696381,61.756958 339.662628,71.906921 329.351624,82.337395 
	C333.557495,86.760201 337.424683,90.826859 340.912842,94.952438 
	C339.154175,96.740677 337.561951,98.342911 336.437012,100.224510 
	C333.697876,104.805977 331.175476,109.517044 328.284180,114.018959 
	C323.242493,108.786804 318.482483,103.711617 313.568665,98.472473 
	C309.871155,101.955688 306.998016,104.662308 304.124878,107.368927 
z"/>
<path fill="#515B60" opacity="1.000000" stroke="none" 
	d="
M137.004562,276.016815 
	C137.168564,274.013458 136.796402,271.764984 137.582397,270.046021 
	C143.249771,257.651337 149.161743,245.368576 154.960281,233.033447 
	C155.422195,232.050858 155.613922,230.941254 156.082108,229.390991 
	C153.590591,230.009171 151.631729,230.495193 149.278458,230.970047 
	C167.345856,212.044647 185.807678,193.130432 204.575714,174.091415 
	C208.366211,171.827179 211.850510,169.687729 216.268448,166.974991 
	C213.657318,173.096115 211.458633,178.501282 209.060287,183.816345 
	C205.050705,192.702103 200.863007,201.507568 196.870224,210.400665 
	C196.006012,212.325500 195.649536,214.478287 194.946869,217.214417 
	C193.575500,219.332169 192.316467,220.761597 190.759155,222.321686 
	C174.529312,238.255554 158.588394,254.049393 142.678146,269.874023 
	C140.703659,271.837891 138.891785,273.965240 137.004562,276.016815 
z"/>
<path fill="#555F63" opacity="1.000000" stroke="none" 
	d="
M13.717471,453.973572 
	C13.915692,454.201721 13.779224,454.478363 13.358503,454.841858 
	C13.267073,454.670868 13.369917,454.368652 13.717471,453.973572 
z"/>
<path fill="#384348" opacity="1.000000" stroke="none" 
	d="
M492.914917,76.571350 
	C489.783417,84.516434 486.529297,92.153709 482.658173,99.869781 
	C472.911072,90.683266 463.780975,81.417938 454.992615,71.997337 
	C458.903839,64.523170 462.473297,57.204277 466.042786,49.885384 
	C474.959259,58.678097 483.875763,67.470818 492.914917,76.571350 
z"/>
<path fill="#3C474C" opacity="1.000000" stroke="none" 
	d="
M465.918884,49.577599 
	C462.473297,57.204277 458.903839,64.523170 454.699585,71.899223 
	C452.136383,70.264130 450.207977,68.571869 448.100403,66.589188 
	C441.808441,59.926434 435.695618,53.554104 429.926453,47.031414 
	C433.525879,39.213608 436.781616,31.546164 440.037354,23.878719 
	C448.623230,32.342415 457.209106,40.806110 465.918884,49.577599 
z"/>
<path fill="#404B50" opacity="1.000000" stroke="none" 
	d="
M439.913330,23.571648 
	C436.781616,31.546164 433.525879,39.213608 429.635193,46.917610 
	C424.393524,42.447441 419.914398,37.799198 415.131195,33.488304 
	C412.366180,30.996351 409.110931,29.048351 405.945190,26.643995 
	C405.562378,26.213737 405.292450,26.020597 405.004242,25.853045 
	C406.709686,21.146317 408.604187,16.496387 410.042450,11.709392 
	C410.785339,9.236842 410.717926,6.520859 411.009827,3.540588 
	C415.887909,5.499023 421.206512,7.224132 425.545685,10.321387 
	C430.731171,14.022721 435.078796,18.897869 439.913330,23.571648 
z"/>
<path fill="#BF3131" opacity="1.000000" stroke="none" 
	d="
M448.279572,66.879608 
	C450.207977,68.571869 452.136383,70.264130 454.357849,72.054504 
	C463.780975,81.417938 472.911072,90.683266 482.338928,100.052284 
	C487.489777,106.548470 491.523468,113.440254 488.901489,121.701622 
	C487.448181,126.280792 485.063538,131.011108 481.828888,134.494019 
	C472.311127,144.742371 462.159027,154.401550 452.106262,164.581253 
	C446.143311,170.528656 440.230347,176.089493 434.564148,181.891342 
	C432.296722,184.213013 430.792572,184.289062 428.526398,181.909958 
	C423.383636,176.510880 417.992554,171.348312 412.247253,165.637680 
	C403.606110,157.074631 395.420135,148.963486 387.056274,140.568939 
	C384.630951,137.848175 382.383514,135.410797 380.471954,132.939377 
	C382.204010,131.772141 383.713074,130.752136 384.979370,129.488785 
	C404.595123,109.918930 424.172638,90.310715 443.785278,70.737694 
	C445.178833,69.346931 446.776703,68.160858 448.279572,66.879608 
z"/>
<path fill="#F3F3F3" opacity="1.000000" stroke="none" 
	d="
M72.597046,349.970581 
	C81.260521,349.969727 89.518761,350.048553 98.337448,350.475464 
	C103.880356,360.568542 108.862831,370.313568 113.901932,380.416595 
	C116.454079,385.133362 118.949600,389.492126 121.102875,393.969238 
	C119.649231,395.077545 118.485519,396.015106 117.434219,397.065186 
	C99.000214,415.478210 80.574623,433.899689 62.169292,452.341431 
	C61.011108,453.501892 60.034630,454.843750 58.662472,455.968689 
	C52.937752,450.828766 47.524170,445.821411 42.110588,440.814056 
	C48.957088,416.617981 55.799438,392.420746 62.657146,368.227875 
	C63.275200,366.047485 63.992462,363.895233 64.694191,361.366150 
	C65.449310,358.669922 66.479134,356.381714 66.825134,353.994354 
	C67.313759,350.622925 69.145096,349.652191 72.597046,349.970581 
z"/>
<path fill="#767777" opacity="1.000000" stroke="none" 
	d="
M42.035053,441.203125 
	C47.524170,445.821411 52.937752,450.828766 58.791790,456.271667 
	C64.149307,461.563629 69.066376,466.420013 73.983444,471.276428 
	C62.246246,474.826447 50.509056,478.376465 38.389435,481.987671 
	C35.655582,482.708038 33.304150,483.367157 29.562178,484.416107 
	C33.886211,469.479675 37.922867,455.535950 42.035053,441.203125 
z"/>
<path fill="#D64343" opacity="1.000000" stroke="none" 
	d="
M404.596558,25.790092 
	C405.292450,26.020597 405.562378,26.213737 405.797974,26.977192 
	C404.362946,30.344580 402.867493,33.131718 401.536835,35.995426 
	C389.020111,62.932674 376.531525,89.882988 363.766296,116.731720 
	C362.754150,116.038437 362.010437,115.442986 361.093018,114.557213 
	C354.376801,107.809105 347.834351,101.351318 341.291870,94.893524 
	C337.424683,90.826859 333.557495,86.760201 329.351624,82.337395 
	C339.662628,71.906921 349.696381,61.756958 359.870239,51.304787 
	C365.779266,45.062527 371.568024,39.141644 377.312103,33.177700 
	C384.812958,25.389730 393.860657,23.270796 404.596558,25.790092 
z"/>
<path fill="#E6BA33" opacity="1.000000" stroke="none" 
	d="
M374.198608,241.714035 
	C365.280060,250.602356 356.453308,259.146576 347.719635,267.784851 
	C334.838684,280.525116 322.024017,293.332367 309.028107,306.392365 
	C292.141205,323.084137 275.407349,339.494690 258.350525,355.636353 
	C258.341827,353.598633 258.292633,351.660980 259.024200,350.085968 
	C273.347382,319.249542 287.757629,288.453552 302.158478,257.653198 
	C309.393982,242.178024 316.690582,226.730972 323.794037,211.195526 
	C324.285095,210.121552 323.393097,208.415176 323.206573,206.678467 
	C339.578461,190.398514 355.888092,174.442963 372.242188,158.443909 
	C374.091736,160.022400 375.472168,161.200516 377.011292,162.660431 
	C384.983154,170.683685 392.796326,178.425140 400.609436,186.166611 
	C405.671906,190.664017 410.734375,195.161407 415.386963,199.294662 
	C400.876160,214.181000 387.604126,227.796494 374.198608,241.714035 
z"/>
<path fill="#3C474C" opacity="1.000000" stroke="none" 
	d="
M400.954376,186.014954 
	C392.796326,178.425140 384.983154,170.683685 377.075989,162.270096 
	C380.399384,154.682755 383.816772,147.767548 387.234131,140.852356 
	C395.420135,148.963486 403.606110,157.074631 411.956543,165.462692 
	C409.499298,170.980103 406.922699,176.243973 404.228394,181.446869 
	C403.420807,183.006409 402.284821,184.395889 400.954376,186.014954 
z"/>
<path fill="#E7BC39" opacity="1.000000" stroke="none" 
	d="
M323.144287,207.002884 
	C323.393097,208.415176 324.285095,210.121552 323.794037,211.195526 
	C316.690582,226.730972 309.393982,242.178024 302.158478,257.653198 
	C287.757629,288.453552 273.347382,319.249542 259.024200,350.085968 
	C258.292633,351.660980 258.341827,353.598633 258.047668,355.791504 
	C250.778137,363.599609 243.488480,370.983673 236.051254,378.670227 
	C221.208298,393.444153 206.516144,407.918854 191.811737,422.381134 
	C190.564148,423.608154 189.234741,424.751984 187.311523,426.513000 
	C187.172806,423.978088 187.085999,422.391663 186.934967,420.404846 
	C189.181244,406.791962 185.163925,397.273529 171.465439,393.198608 
	C169.116013,392.499725 166.976440,391.095337 164.163574,389.696045 
	C158.451233,386.943420 153.315216,384.511658 148.491852,382.227936 
	C155.091095,375.513641 161.388931,369.134338 167.654602,362.723572 
	C174.841705,355.370087 182.000351,347.988770 189.492767,340.464294 
	C194.158646,335.765961 198.394730,331.113037 202.868423,326.700989 
	C215.038925,314.698120 227.345306,302.833038 239.521011,290.835388 
	C243.525757,286.889160 247.295319,282.704285 251.496277,278.476196 
	C254.514313,275.693390 257.242584,273.096832 259.897156,270.426971 
	C276.364716,253.864487 292.815735,237.285553 309.573883,220.532593 
	C314.298462,215.903030 318.721375,211.452957 323.144287,207.002884 
z"/>
<path fill="#DDDEDE" opacity="1.000000" stroke="none" 
	d="
M74.397552,471.274597 
	C69.066376,466.420013 64.149307,461.563629 59.102924,456.404236 
	C60.034630,454.843750 61.011108,453.501892 62.169292,452.341431 
	C80.574623,433.899689 99.000214,415.478210 117.434219,397.065186 
	C118.485519,396.015106 119.649231,395.077545 121.420090,394.056183 
	C133.056213,399.621918 144.032867,405.219055 155.009537,410.816223 
	C163.208191,413.135468 164.987854,418.870819 164.072708,426.642731 
	C163.473480,431.731781 163.789398,436.955750 164.018738,442.104889 
	C164.152985,445.118958 163.213882,446.416229 160.179977,447.228302 
	C149.275238,450.147247 138.468842,453.433655 127.312683,456.791687 
	C111.158852,461.419708 95.317627,465.837219 79.190033,470.474304 
	C77.539658,470.886810 76.175652,471.079773 74.397552,471.274597 
z"/>
<path fill="#4C565A" opacity="1.000000" stroke="none" 
	d="
M155.056488,410.460632 
	C144.032867,405.219055 133.056213,399.621918 121.762337,393.937805 
	C118.949600,389.492126 116.454079,385.133362 114.223785,380.266144 
	C117.011581,374.928894 119.343010,369.986023 122.130547,365.315399 
	C123.727493,362.639618 126.065552,360.406128 128.273956,358.038116 
	C128.477951,358.102722 128.886124,358.231445 128.935379,358.587616 
	C129.891571,360.969727 130.798508,362.995697 132.480408,366.752777 
	C134.196030,364.256653 135.031677,362.543793 136.303665,361.264984 
	C154.273560,343.199341 172.285263,325.175201 190.326492,307.180695 
	C197.155243,300.369629 204.085297,293.660126 210.979019,287.318451 
	C210.429398,289.940186 210.195557,292.298096 209.257141,294.330750 
	C203.560715,306.669434 197.616196,318.893921 191.964310,331.252472 
	C190.622345,334.186859 190.080994,337.487427 189.171356,340.619537 
	C182.000351,347.988770 174.841705,355.370087 167.654602,362.723572 
	C161.388931,369.134338 155.091095,375.513641 148.491852,382.227936 
	C153.315216,384.511658 158.451233,386.943420 163.804718,389.643585 
	C161.049271,396.642975 158.076355,403.373993 155.056488,410.460632 
z"/>
<path fill="#FECF41" opacity="1.000000" stroke="none" 
	d="
M303.979218,107.653107 
	C306.998016,104.662308 309.871155,101.955688 313.568665,98.472473 
	C318.482483,103.711617 323.242493,108.786804 328.406158,114.348480 
	C335.736908,121.614799 342.664032,128.394638 349.769653,135.474762 
	C352.089783,137.316055 354.231415,138.857040 356.631073,140.583710 
	C347.229126,150.226532 339.096710,158.567276 330.657776,167.046387 
	C310.890747,186.757782 291.430176,206.330795 271.662750,226.042480 
	C265.831665,231.687897 260.318024,237.205276 254.781113,242.699249 
	C240.535416,256.834473 226.279404,270.959290 212.019287,284.662445 
	C212.350418,282.134430 212.242981,279.827789 213.097168,277.961182 
	C223.470596,255.292953 233.935745,232.666275 244.477905,210.075836 
	C254.953156,187.628738 265.594482,165.258972 276.008942,142.783920 
	C277.151886,140.317368 277.280396,137.380768 277.879395,134.662170 
	C286.530792,125.753876 295.182159,116.845581 303.979218,107.653107 
z"/>
<path fill="#FED146" opacity="1.000000" stroke="none" 
	d="
M277.579529,134.832031 
	C277.280396,137.380768 277.151886,140.317368 276.008942,142.783920 
	C265.594482,165.258972 254.953156,187.628738 244.477905,210.075836 
	C233.935745,232.666275 223.470596,255.292953 213.097168,277.961182 
	C212.242981,279.827789 212.350418,282.134430 211.930573,284.914490 
	C211.556458,286.029663 211.262817,286.466980 210.969177,286.904327 
	C204.085297,293.660126 197.155243,300.369629 190.326492,307.180695 
	C172.285263,325.175201 154.273560,343.199341 136.303665,361.264984 
	C135.031677,362.543793 134.196030,364.256653 132.480408,366.752777 
	C130.798508,362.995697 129.891571,360.969727 129.088501,358.258453 
	C132.386948,351.212555 135.722580,344.918365 138.752289,338.480225 
	C153.934845,306.216919 169.131729,273.959534 184.085526,241.590118 
	C186.956146,235.376282 188.760925,228.670090 191.057434,222.191040 
	C192.316467,220.761597 193.575500,219.332169 194.972809,217.622055 
	C213.812012,198.338562 232.454987,179.278214 251.239914,160.358810 
	C259.774963,151.762680 268.591064,143.445587 277.579529,134.832031 
z"/>
<path fill="#FED24B" opacity="1.000000" stroke="none" 
	d="
M190.759155,222.321686 
	C188.760925,228.670090 186.956146,235.376282 184.085526,241.590118 
	C169.131729,273.959534 153.934845,306.216919 138.752289,338.480225 
	C135.722580,344.918365 132.386948,351.212555 129.039246,357.902283 
	C128.886124,358.231445 128.477951,358.102722 128.231262,357.678040 
	C124.297737,349.816132 120.763771,342.296722 116.836143,334.988892 
	C115.565102,332.623932 113.261406,330.813965 111.430077,328.750153 
	C107.581940,328.135864 103.752739,327.289154 99.880257,326.973633 
	C96.124512,326.667633 92.324303,326.907257 86.926262,326.907257 
	C104.190422,309.481171 120.464920,293.054016 136.871979,276.321838 
	C138.891785,273.965240 140.703659,271.837891 142.678146,269.874023 
	C158.588394,254.049393 174.529312,238.255554 190.759155,222.321686 
z"/>
<path fill="#515B60" opacity="1.000000" stroke="none" 
	d="
M111.086052,328.919678 
	C113.261406,330.813965 115.565102,332.623932 116.836143,334.988892 
	C120.763771,342.296722 124.297737,349.816132 128.027267,357.613464 
	C126.065552,360.406128 123.727493,362.639618 122.130547,365.315399 
	C119.343010,369.986023 117.011581,374.928894 114.167160,379.908112 
	C108.862831,370.313568 103.880356,360.568542 98.785568,350.480042 
	C99.820503,348.438080 101.096382,346.811310 102.090782,345.027618 
	C105.034126,339.748047 107.866348,334.406494 111.086052,328.919678 
z"/>
<path fill="#444E54" opacity="1.000000" stroke="none" 
	d="
M349.591156,135.174469 
	C342.664032,128.394638 335.736908,121.614799 328.687805,114.505447 
	C331.175476,109.517044 333.697876,104.805977 336.437012,100.224510 
	C337.561951,98.342911 339.154175,96.740677 340.912842,94.952454 
	C347.834351,101.351318 354.376801,107.809105 360.779785,114.756828 
	C359.409851,117.732948 358.285187,120.278740 356.925507,122.692131 
	C354.557098,126.895927 352.043732,131.018082 349.591156,135.174469 
z"/>
<path fill="#D63E3E" opacity="1.000000" stroke="none" 
	d="
M364.034790,116.829529 
	C376.531525,89.882988 389.020111,62.932674 401.536835,35.995426 
	C402.867493,33.131718 404.362946,30.344580 405.929138,27.188725 
	C409.110931,29.048351 412.366180,30.996351 415.131195,33.488304 
	C419.914398,37.799198 424.393524,42.447441 429.291504,47.067970 
	C435.695618,53.554104 441.808441,59.926434 448.100403,66.589188 
	C446.776703,68.160858 445.178833,69.346931 443.785278,70.737694 
	C424.172638,90.310715 404.595123,109.918930 384.979370,129.488785 
	C383.713074,130.752136 382.204010,131.772141 380.171112,132.781952 
	C374.367828,127.382217 369.201324,122.105873 364.034790,116.829529 
z"/>
<path fill="#404B50" opacity="1.000000" stroke="none" 
	d="
M363.766296,116.731712 
	C369.201324,122.105873 374.367828,127.382217 379.835205,132.815979 
	C382.383514,135.410797 384.630951,137.848175 387.056274,140.568954 
	C383.816772,147.767548 380.399384,154.682755 376.917297,161.988281 
	C375.472168,161.200516 374.091736,160.022400 372.242188,158.443909 
	C355.888092,174.442963 339.578461,190.398514 323.206573,206.678467 
	C318.721375,211.452957 314.298462,215.903030 309.504395,220.081604 
	C309.492493,218.060959 309.530243,216.162613 310.261902,214.586334 
	C315.985504,202.255341 321.946198,190.033585 327.590179,177.666977 
	C329.138672,174.274063 329.862213,170.504654 330.964294,166.908020 
	C339.096710,158.567276 347.229126,150.226532 356.631073,140.583710 
	C354.231415,138.857040 352.089783,137.316055 349.769653,135.474762 
	C352.043732,131.018082 354.557098,126.895927 356.925507,122.692131 
	C358.285187,120.278740 359.409851,117.732948 360.953552,115.047150 
	C362.010437,115.442986 362.754150,116.038437 363.766296,116.731712 
z"/>
<path fill="#485257" opacity="1.000000" stroke="none" 
	d="
M210.979019,287.318451 
	C211.262817,286.466980 211.556458,286.029663 211.938812,285.340271 
	C226.279404,270.959290 240.535416,256.834473 254.781113,242.699249 
	C260.318024,237.205276 265.831665,231.687897 271.672089,226.443039 
	C271.589966,228.281708 271.431732,229.970703 270.755615,231.417709 
	C264.952393,243.837967 258.912781,256.150269 253.289520,268.650330 
	C251.926331,271.680603 251.843826,275.287048 251.172440,278.628540 
	C247.295319,282.704285 243.525757,286.889160 239.521011,290.835388 
	C227.345306,302.833038 215.038925,314.698120 202.868423,326.700989 
	C198.394730,331.113037 194.158646,335.765961 189.492783,340.464294 
	C190.080994,337.487427 190.622345,334.186859 191.964310,331.252472 
	C197.616196,318.893921 203.560715,306.669434 209.257141,294.330750 
	C210.195557,292.298096 210.429398,289.940186 210.979019,287.318451 
z"/>
<path fill="#444E54" opacity="1.000000" stroke="none" 
	d="
M251.496277,278.476196 
	C251.843826,275.287048 251.926331,271.680603 253.289520,268.650330 
	C258.912781,256.150269 264.952393,243.837967 270.755615,231.417709 
	C271.431732,229.970703 271.589966,228.281708 271.978943,226.304352 
	C291.430176,206.330795 310.890747,186.757782 330.657776,167.046387 
	C329.862213,170.504654 329.138672,174.274063 327.590179,177.666977 
	C321.946198,190.033585 315.985504,202.255341 310.261902,214.586334 
	C309.530243,216.162613 309.492493,218.060959 309.202759,220.261108 
	C292.815735,237.285553 276.364716,253.864487 259.897156,270.426971 
	C257.242584,273.096832 254.514313,275.693390 251.496277,278.476196 
z"/>
</svg>