<?xml version="1.0" encoding="UTF-8"?>
<!DOCTYPE svg PUBLIC "-//W3C//DTD SVG 1.1//EN" "http://www.w3.org/Graphics/SVG/1.1/DTD/svg11.dtd">
<svg xmlns="http://www.w3.org/2000/svg" version="1.1" width="60px" height="60px" style="shape-rendering:geometricPrecision; text-rendering:geometricPrecision; image-rendering:optimizeQuality; fill-rule:evenodd; clip-rule:evenodd" xmlns:xlink="http://www.w3.org/1999/xlink">
<g><path style="opacity:0.877" fill="#fefffe" d="M 17.5,1.5 C 21.5,0.833333 23.1667,2.5 22.5,6.5C 27.1667,6.5 31.8333,6.5 36.5,6.5C 36.0146,1.84146 37.848,0.508128 42,2.5C 42.49,3.79323 42.6567,5.12656 42.5,6.5C 47.1264,5.70039 50.9597,7.03372 54,10.5C 54.6667,24.8333 54.6667,39.1667 54,53.5C 52.786,55.0488 51.286,56.2155 49.5,57C 36.1667,57.6667 22.8333,57.6667 9.5,57C 7.71398,56.2155 6.21398,55.0488 5,53.5C 4.33333,39.1667 4.33333,24.8333 5,10.5C 8.04026,7.03372 11.8736,5.70039 16.5,6.5C 16.366,4.70848 16.6993,3.04181 17.5,1.5 Z M 10.5,12.5 C 12.5,12.5 14.5,12.5 16.5,12.5C 16.0146,17.1585 17.848,18.4919 22,16.5C 22.49,15.2068 22.6567,13.8734 22.5,12.5C 27.1667,12.5 31.8333,12.5 36.5,12.5C 36.0146,17.1585 37.848,18.4919 42,16.5C 42.49,15.2068 42.6567,13.8734 42.5,12.5C 48.8311,12.1097 51.1644,15.1097 49.5,21.5C 36.1667,21.5 22.8333,21.5 9.5,21.5C 9.36772,18.4299 9.70105,15.4299 10.5,12.5 Z M 9.5,27.5 C 22.8333,27.5 36.1667,27.5 49.5,27.5C 49.8004,35.2233 49.4671,42.8899 48.5,50.5C 35.8333,51.8333 23.1667,51.8333 10.5,50.5C 9.53293,42.8899 9.1996,35.2233 9.5,27.5 Z"/></g>
</svg>
