<?xml version="1.0" encoding="UTF-8"?>
<!DOCTYPE svg PUBLIC "-//W3C//DTD SVG 1.1//EN" "http://www.w3.org/Graphics/SVG/1.1/DTD/svg11.dtd">
<svg xmlns="http://www.w3.org/2000/svg" version="1.1" width="60px" height="60px" style="shape-rendering:geometricPrecision; text-rendering:geometricPrecision; image-rendering:optimizeQuality; fill-rule:evenodd; clip-rule:evenodd" xmlns:xlink="http://www.w3.org/1999/xlink">
<g><path style="opacity:0.908" fill="#323232" d="M 4.5,4.5 C 12.0871,4.18583 19.5871,4.51916 27,5.5C 27.8163,14.4117 27.6497,23.245 26.5,32C 19.2529,32.8123 12.0862,32.6456 5,31.5C 4.50023,22.5062 4.33356,13.5062 4.5,4.5 Z M 9.5,9.5 C 13.5,9.5 17.5,9.5 21.5,9.5C 21.5,15.1667 21.5,20.8333 21.5,26.5C 17.5,26.5 13.5,26.5 9.5,26.5C 9.5,20.8333 9.5,15.1667 9.5,9.5 Z"/></g>
<g><path style="opacity:0.908" fill="#323232" d="M 32.5,4.5 C 39.8333,4.5 47.1667,4.5 54.5,4.5C 54.6661,10.1764 54.4994,15.8431 54,21.5C 46.6667,22.8333 39.3333,22.8333 32,21.5C 31.2153,15.7507 31.3819,10.084 32.5,4.5 Z M 37.5,9.5 C 41.5,9.5 45.5,9.5 49.5,9.5C 49.5,11.8333 49.5,14.1667 49.5,16.5C 45.5,16.5 41.5,16.5 37.5,16.5C 37.5,14.1667 37.5,11.8333 37.5,9.5 Z"/></g>
<g><path style="opacity:0.907" fill="#323232" d="M 32.5,26.5 C 39.7546,26.1868 46.9213,26.5201 54,27.5C 54.4998,36.4938 54.6664,45.4938 54.5,54.5C 46.9129,54.8142 39.4129,54.4808 32,53.5C 31.1965,44.4221 31.3631,35.4221 32.5,26.5 Z M 37.5,32.5 C 41.5,32.5 45.5,32.5 49.5,32.5C 49.5,38.1667 49.5,43.8333 49.5,49.5C 45.5,49.5 41.5,49.5 37.5,49.5C 37.5,43.8333 37.5,38.1667 37.5,32.5 Z"/></g>
<g><path style="opacity:0.906" fill="#323232" d="M 5.5,36.5 C 12.5079,36.3337 19.5079,36.5004 26.5,37C 27.8333,42.6667 27.8333,48.3333 26.5,54C 19.1742,54.4997 11.8409,54.6663 4.5,54.5C 4.21139,48.4093 4.54472,42.4093 5.5,36.5 Z M 9.5,42.5 C 13.5,42.5 17.5,42.5 21.5,42.5C 21.5,44.8333 21.5,47.1667 21.5,49.5C 17.5,49.5 13.5,49.5 9.5,49.5C 9.5,47.1667 9.5,44.8333 9.5,42.5 Z"/></g>
</svg>
