<?xml version="1.0" encoding="UTF-8"?>
<!DOCTYPE svg PUBLIC "-//W3C//DTD SVG 1.1//EN" "http://www.w3.org/Graphics/SVG/1.1/DTD/svg11.dtd">
<svg xmlns="http://www.w3.org/2000/svg" version="1.1" width="60px" height="60px" style="shape-rendering:geometricPrecision; text-rendering:geometricPrecision; image-rendering:optimizeQuality; fill-rule:evenodd; clip-rule:evenodd" xmlns:xlink="http://www.w3.org/1999/xlink">
<g><path style="opacity:0.878" fill="#fefffe" d="M 25.5,1.5 C 36.4376,0.543203 43.6043,5.20987 47,15.5C 47.3073,20.8819 47.974,26.2152 49,31.5C 49.7491,34.7574 51.4157,37.4241 54,39.5C 54.4935,41.1341 54.6602,42.8008 54.5,44.5C 37.8333,44.5 21.1667,44.5 4.5,44.5C 4.33982,42.8008 4.50649,41.1341 5,39.5C 7.68054,37.4733 9.34721,34.8066 10,31.5C 10.8809,25.1333 11.8809,18.8 13,12.5C 15.5048,6.82183 19.6714,3.15516 25.5,1.5 Z M 26.5,7.5 C 32.2692,6.63445 36.7692,8.63445 40,13.5C 41.1962,19.7863 42.1962,26.1196 43,32.5C 43.5573,34.6147 44.3906,36.6147 45.5,38.5C 34.8333,39.8333 24.1667,39.8333 13.5,38.5C 16.4709,31.1449 17.9709,23.4783 18,15.5C 20.0982,11.8972 22.9315,9.23049 26.5,7.5 Z"/></g>
<g><path style="opacity:0.781" fill="#fefffe" d="M 22.5,49.5 C 25.1569,49.162 27.4902,49.8287 29.5,51.5C 31.5098,49.8287 33.8431,49.162 36.5,49.5C 37.0419,54.6274 34.7085,57.294 29.5,57.5C 24.2915,57.294 21.9581,54.6274 22.5,49.5 Z"/></g>
</svg>
