<?xml version="1.0" encoding="UTF-8"?>
<!DOCTYPE svg PUBLIC "-//W3C//DTD SVG 1.1//EN" "http://www.w3.org/Graphics/SVG/1.1/DTD/svg11.dtd">
<svg xmlns="http://www.w3.org/2000/svg" version="1.1" width="60px" height="60px" style="shape-rendering:geometricPrecision; text-rendering:geometricPrecision; image-rendering:optimizeQuality; fill-rule:evenodd; clip-rule:evenodd" xmlns:xlink="http://www.w3.org/1999/xlink">
<g><path style="opacity:0.869" fill="#fefffe" d="M 5.5,4.5 C 11.8682,4.17033 18.2015,4.50367 24.5,5.5C 25.711,7.4219 27.0443,9.25523 28.5,11C 34.8333,11.3333 41.1667,11.6667 47.5,12C 49.6667,12.8333 51.1667,14.3333 52,16.5C 52.4983,19.8168 52.665,23.1501 52.5,26.5C 55.2605,25.9147 56.9272,26.9147 57.5,29.5C 54.745,37.7716 51.4116,45.7716 47.5,53.5C 33.5451,54.6489 19.5451,54.8156 5.5,54C 3.95118,52.786 2.78451,51.286 2,49.5C 1.33333,36.1667 1.33333,22.8333 2,9.5C 2.99728,7.67694 4.16394,6.01027 5.5,4.5 Z M 9.5,9.5 C 13.1817,9.3347 16.8484,9.50137 20.5,10C 22.1667,12.3333 23.8333,14.6667 25.5,17C 32.1667,17.3333 38.8333,17.6667 45.5,18C 46.4438,20.7191 46.7771,23.5525 46.5,26.5C 36.8276,26.3335 27.1609,26.5002 17.5,27C 15.3088,31.9034 13.3088,36.9034 11.5,42C 12.4085,44.3193 14.0752,44.9859 16.5,44C 18.1667,40.3333 19.8333,36.6667 21.5,33C 31.1667,32.3333 40.8333,32.3333 50.5,33C 48.3611,38.4161 46.0278,43.7495 43.5,49C 32.1667,49.6667 20.8333,49.6667 9.5,49C 8.18818,42.7399 7.52151,36.2399 7.5,29.5C 7.53932,22.5954 8.20599,15.9288 9.5,9.5 Z"/></g>
</svg>
