<?xml version="1.0" encoding="UTF-8"?>
<!DOCTYPE svg PUBLIC "-//W3C//DTD SVG 1.1//EN" "http://www.w3.org/Graphics/SVG/1.1/DTD/svg11.dtd">
<svg xmlns="http://www.w3.org/2000/svg" version="1.1" width="60px" height="60px" style="shape-rendering:geometricPrecision; text-rendering:geometricPrecision; image-rendering:optimizeQuality; fill-rule:evenodd; clip-rule:evenodd" xmlns:xlink="http://www.w3.org/1999/xlink">
<g><path style="opacity:0.847" fill="#fefffe" d="M 26.5,1.5 C 33.9347,1.09714 38.2681,4.59714 39.5,12C 43.1206,11.5948 46.7872,11.5948 50.5,12C 53.1779,13.8412 54.8445,16.3412 55.5,19.5C 54.4735,23.576 52.4735,26.9093 49.5,29.5C 50.3222,31.6868 51.8222,33.3534 54,34.5C 56.1093,39.5137 54.9427,43.6804 50.5,47C 46.7872,47.4052 43.1206,47.4052 39.5,47C 36.6624,57.8486 30.829,60.0152 22,53.5C 21.9071,50.9925 21.0738,48.8259 19.5,47C 15.8794,47.4052 12.2128,47.4052 8.5,47C 4.32943,43.1457 3.4961,38.6457 6,33.5C 8.04801,32.9021 9.21467,31.5688 9.5,29.5C 8.20056,27.4097 6.70056,25.4097 5,23.5C 3.70302,18.8831 4.86968,15.0498 8.5,12C 12.2128,11.5948 15.8794,11.5948 19.5,12C 21.0738,10.1741 21.9071,8.00747 22,5.5C 23.3968,3.92975 24.8968,2.59641 26.5,1.5 Z M 27.5,7.5 C 29.1439,7.28649 30.6439,7.61983 32,8.5C 33.3028,16.911 38.1362,19.911 46.5,17.5C 47.91,17.8678 48.91,18.7011 49.5,20C 41.5,26.3333 41.5,32.6667 49.5,39C 47.3886,41.6853 44.7219,42.1853 41.5,40.5C 35.0846,40.7487 31.918,44.082 32,50.5C 30.5064,51.7472 29.0064,51.7472 27.5,50.5C 25.8105,42.1504 20.8105,39.1504 12.5,41.5C 11.09,41.1322 10.09,40.2989 9.5,39C 17.5,32.6667 17.5,26.3333 9.5,20C 11.8055,17.2258 14.6389,16.7258 18,18.5C 24.4112,17.6957 27.5778,14.029 27.5,7.5 Z M 29.5,24.5 C 36.1401,27.7936 36.1401,31.1269 29.5,34.5C 25.7455,33.0968 24.5789,30.4302 26,26.5C 27.3024,25.9152 28.469,25.2485 29.5,24.5 Z"/></g>
<g><path style="opacity:0.872" fill="#fefffe" d="M 25.5,19.5 C 36.54,18.7039 41.04,23.7039 39,34.5C 35.6567,39.2183 31.1567,40.7183 25.5,39C 19.9752,36.0812 18.1419,31.5812 20,25.5C 21.3597,22.9774 23.193,20.9774 25.5,19.5 Z M 29.5,24.5 C 28.469,25.2485 27.3024,25.9152 26,26.5C 24.5789,30.4302 25.7455,33.0968 29.5,34.5C 36.1401,31.1269 36.1401,27.7936 29.5,24.5 Z"/></g>
</svg>
