<?xml version="1.0" encoding="UTF-8"?>
<!DOCTYPE svg PUBLIC "-//W3C//DTD SVG 1.1//EN" "http://www.w3.org/Graphics/SVG/1.1/DTD/svg11.dtd">
<svg xmlns="http://www.w3.org/2000/svg" version="1.1" width="72px" height="72px" style="shape-rendering:geometricPrecision; text-rendering:geometricPrecision; image-rendering:optimizeQuality; fill-rule:evenodd; clip-rule:evenodd" xmlns:xlink="http://www.w3.org/1999/xlink">
<g><path style="opacity:0.903" fill="#323232" d="M 30.5,2.5 C 40.1465,0.217831 45.3132,3.8845 46,13.5C 47.0852,14.2931 48.2519,14.9598 49.5,15.5C 58.5826,11.3746 64.2493,14.2079 66.5,24C 65.8629,26.245 65.0296,28.4117 64,30.5C 58,33.8333 58,37.1667 64,40.5C 67.6084,47.347 66.1084,52.847 59.5,57C 56.0037,57.6953 52.6703,57.1953 49.5,55.5C 48.5,56 47.5,56.5 46.5,57C 45.7478,67.0569 40.4145,70.7236 30.5,68C 26.9369,65.2085 24.9369,61.5419 24.5,57C 23.5,56.5 22.5,56 21.5,55.5C 9.60558,59.2949 4.43892,54.9615 6,42.5C 8.2812,40.4632 10.1145,38.1299 11.5,35.5C 10.1145,32.8701 8.2812,30.5368 6,28.5C 4.4276,15.8971 9.59426,11.5638 21.5,15.5C 22.5,15 23.5,14.5 24.5,14C 25.0703,9.35726 27.0703,5.52392 30.5,2.5 Z M 34.5,8.5 C 35.5832,8.53944 36.5832,8.87277 37.5,9.5C 39.4003,20.529 45.5669,24.1957 56,20.5C 57.7144,21.0762 58.8811,22.2429 59.5,24C 50.1667,31.6667 50.1667,39.3333 59.5,47C 58.8811,48.7571 57.7144,49.9238 56,50.5C 45.5669,46.8043 39.4003,50.471 37.5,61.5C 36.1667,62.8333 34.8333,62.8333 33.5,61.5C 31.6399,50.489 25.4732,46.8224 15,50.5C 13.2856,49.9238 12.1189,48.7571 11.5,47C 20.8333,39.3333 20.8333,31.6667 11.5,24C 12.1189,22.2429 13.2856,21.0762 15,20.5C 19.5979,23.2272 24.0979,23.0605 28.5,20C 31.1594,16.4065 33.1594,12.5732 34.5,8.5 Z M 35.5,29.5 C 43.4735,33.4602 43.4735,37.4602 35.5,41.5C 30.9228,40.0794 29.4228,37.0794 31,32.5C 32.4087,31.2189 33.9087,30.2189 35.5,29.5 Z"/></g>
<g><path style="opacity:0.908" fill="#323232" d="M 30.5,23.5 C 43.3202,22.1527 48.8202,27.8194 47,40.5C 43.3449,47.0702 37.8449,49.2368 30.5,47C 23.9298,43.3449 21.7632,37.8449 24,30.5C 25.6941,27.6424 27.8607,25.309 30.5,23.5 Z M 35.5,29.5 C 33.9087,30.2189 32.4087,31.2189 31,32.5C 29.4228,37.0794 30.9228,40.0794 35.5,41.5C 43.4735,37.4602 43.4735,33.4602 35.5,29.5 Z"/></g>
</svg>
