<?xml version="1.0" encoding="UTF-8"?>
<!DOCTYPE svg PUBLIC "-//W3C//DTD SVG 1.1//EN" "http://www.w3.org/Graphics/SVG/1.1/DTD/svg11.dtd">
<svg xmlns="http://www.w3.org/2000/svg" version="1.1" width="253px" height="248px" style="shape-rendering:geometricPrecision; text-rendering:geometricPrecision; image-rendering:optimizeQuality; fill-rule:evenodd; clip-rule:evenodd" xmlns:xlink="http://www.w3.org/1999/xlink">
<g><path style="opacity:0.927" fill="#f1f1f3" d="M 110.5,-0.5 C 121.5,-0.5 132.5,-0.5 143.5,-0.5C 161.749,2.78768 178.415,9.12101 193.5,18.5C 194.086,18.2907 194.586,17.9574 195,17.5C 195.698,18.6906 196.531,19.6906 197.5,20.5C 196.761,20.369 196.094,20.5357 195.5,21C 196.563,22.1882 197.897,22.6882 199.5,22.5C 198.321,24.409 198.654,24.7424 200.5,23.5C 201.791,24.7784 203.791,25.4451 206.5,25.5C 207.812,28.5356 210.146,30.7022 213.5,32C 214.386,33.6147 215.386,35.1147 216.5,36.5C 216.167,36.5 215.833,36.5 215.5,36.5C 214.833,37.1667 214.167,37.8333 213.5,38.5C 218.927,45.9195 223.927,53.5862 228.5,61.5C 245.853,106.052 239.019,146.386 208,182.5C 173.233,215.056 133.066,223.89 87.5,209C 52.6535,194.482 30.1535,168.982 20,132.5C 16.3198,113.37 16.8198,94.3701 21.5,75.5C 23.6951,70.2491 25.6951,64.9158 27.5,59.5C 31.4658,53.1892 35.4658,46.8559 39.5,40.5C 40.3382,40.1583 40.6716,39.4916 40.5,38.5C 42.5311,37.4613 43.8645,35.7946 44.5,33.5C 46.4241,33.2893 46.7574,32.6226 45.5,31.5C 45.5,30.5 45.5,29.5 45.5,28.5C 47.1815,26.9925 49.1815,25.9925 51.5,25.5C 52.9245,27.0311 53.5912,26.6977 53.5,24.5C 53.5,23.5 53.5,22.5 53.5,21.5C 56.0631,20.9117 58.3964,19.9117 60.5,18.5C 62.0009,17.2485 63.6675,16.2485 65.5,15.5C 66.1667,16.8333 66.8333,16.8333 67.5,15.5C 67.1558,14.3172 67.8225,13.4839 69.5,13C 82.7181,6.76013 96.3848,2.26013 110.5,-0.5 Z"/></g>
<g><path style="opacity:1" fill="#1d1c35" d="M 121.5,3.5 C 124.167,3.5 126.833,3.5 129.5,3.5C 163.887,38.5541 198.554,73.2208 233.5,107.5C 233.763,111.6 233.43,115.6 232.5,119.5C 194.035,81.5348 155.701,43.3681 117.5,5C 119.058,4.78997 120.391,4.28997 121.5,3.5 Z"/></g>
<g><path style="opacity:1" fill="#1b1a2f" d="M 129.5,3.5 C 135.739,3.27639 141.739,3.94306 147.5,5.5C 146.761,5.36899 146.094,5.53566 145.5,6C 174.116,34.7829 202.782,63.2829 231.5,91.5C 232.268,92.2625 232.768,93.2625 233,94.5C 233.499,98.8206 233.666,103.154 233.5,107.5C 198.554,73.2208 163.887,38.5541 129.5,3.5 Z"/></g>
<g><path style="opacity:1" fill="#1f1e3b" d="M 121.5,3.5 C 120.391,4.28997 119.058,4.78997 117.5,5C 155.701,43.3681 194.035,81.5348 232.5,119.5C 232.471,123.64 231.804,127.64 230.5,131.5C 189.165,90.6662 147.665,49.3329 106,7.5C 105.536,6.90558 105.369,6.23891 105.5,5.5C 110.714,4.03153 116.047,3.36486 121.5,3.5 Z"/></g>
<g><path style="opacity:1" fill="#171828" d="M 147.5,5.5 C 152.862,5.88361 157.862,7.21694 162.5,9.5C 162.062,9.43456 161.728,9.60123 161.5,10C 183.483,31.8152 205.15,53.6485 226.5,75.5C 227.298,75.0431 227.631,74.3764 227.5,73.5C 229.969,79.1531 231.302,85.1531 231.5,91.5C 202.782,63.2829 174.116,34.7829 145.5,6C 146.094,5.53566 146.761,5.36899 147.5,5.5 Z"/></g>
<g><path style="opacity:1" fill="#212043" d="M 105.5,5.5 C 105.369,6.23891 105.536,6.90558 106,7.5C 147.665,49.3329 189.165,90.6662 230.5,131.5C 229.899,134.968 228.899,138.301 227.5,141.5C 197.201,111.702 167.035,81.7015 137,51.5C 136.601,51.7284 136.435,52.0618 136.5,52.5C 135.392,49.1979 134.059,45.8646 132.5,42.5C 129.737,40.3187 126.737,39.9854 123.5,41.5C 122.157,43.9044 120.823,46.2377 119.5,48.5C 112.172,41.0043 105.005,33.3377 98,25.5C 93.3859,20.8002 88.5525,16.4669 83.5,12.5C 90.3801,8.98543 97.7134,6.6521 105.5,5.5 Z"/></g>
<g><path style="opacity:1" fill="#161723" d="M 162.5,9.5 C 190.976,19.4684 211.81,38.135 225,65.5C 226.136,68.0964 226.969,70.763 227.5,73.5C 227.631,74.3764 227.298,75.0431 226.5,75.5C 205.15,53.6485 183.483,31.8152 161.5,10C 161.728,9.60123 162.062,9.43456 162.5,9.5 Z"/></g>
<g><path style="opacity:1" fill="#24224e" d="M 83.5,12.5 C 88.5525,16.4669 93.3859,20.8002 98,25.5C 105.005,33.3377 112.172,41.0043 119.5,48.5C 118.939,53.1755 117.606,57.5089 115.5,61.5C 115.649,60.448 115.483,59.448 115,58.5C 101.434,45.0996 87.9342,31.4329 74.5,17.5C 77.3037,15.5954 80.3037,13.9287 83.5,12.5 Z"/></g>
<g><path style="opacity:0.004" fill="#3b3b3b" d="M 67.5,15.5 C 66.8333,16.8333 66.1667,16.8333 65.5,15.5C 65.9377,14.4937 66.6043,14.4937 67.5,15.5 Z"/></g>
<g><path style="opacity:0.004" fill="#000000" d="M 60.5,18.5 C 59.8333,17.1667 59.8333,17.1667 60.5,18.5 Z"/></g>
<g><path style="opacity:0.004" fill="#363636" d="M 197.5,20.5 C 198.5,20.8333 199.167,21.5 199.5,22.5C 197.897,22.6882 196.563,22.1882 195.5,21C 196.094,20.5357 196.761,20.369 197.5,20.5 Z"/></g>
<g><path style="opacity:0.008" fill="#3f3f3f" d="M 199.5,22.5 C 200.167,22.5 200.5,22.8333 200.5,23.5C 198.654,24.7424 198.321,24.409 199.5,22.5 Z"/></g>
<g><path style="opacity:0.004" fill="#000000" d="M 51.5,25.5 C 51.8417,24.6618 52.5084,24.3284 53.5,24.5C 53.5912,26.6977 52.9245,27.0311 51.5,25.5 Z"/></g>
<g><path style="opacity:1" fill="#262259" d="M 74.5,17.5 C 87.9342,31.4329 101.434,45.0996 115,58.5C 115.483,59.448 115.649,60.448 115.5,61.5C 113.946,67.4159 111.946,73.0826 109.5,78.5C 92.5,61.8333 75.5,45.1667 58.5,28.5C 63.1295,23.8486 68.4628,20.1819 74.5,17.5 Z"/></g>
<g><path style="opacity:0.008" fill="#656565" d="M 46.5,30.5 C 47.2506,29.4265 48.2506,29.2599 49.5,30C 48.6477,31.7284 47.6477,31.895 46.5,30.5 Z"/></g>
<g><path style="opacity:0.008" fill="#000000" d="M 45.5,31.5 C 46.7574,32.6226 46.4241,33.2893 44.5,33.5C 44.8333,32.8333 45.1667,32.1667 45.5,31.5 Z"/></g>
<g><path style="opacity:0.005" fill="#000000" d="M 209.5,31.5 C 212.199,34.2721 211.866,34.7721 208.5,33C 209.056,32.6174 209.389,32.1174 209.5,31.5 Z"/></g>
<g><path style="opacity:0.008" fill="#383838" d="M 44.5,33.5 C 43.8645,35.7946 42.5311,37.4613 40.5,38.5C 41.0798,36.2512 42.4131,34.5846 44.5,33.5 Z"/></g>
<g><path style="opacity:1" fill="#272365" d="M 58.5,28.5 C 75.5,45.1667 92.5,61.8333 109.5,78.5C 105.816,91.1896 102.15,103.856 98.5,116.5C 97.6981,115.048 97.1981,113.382 97,111.5C 77.0562,91.3872 57.2229,71.7205 37.5,52.5C 43.0382,43.2903 50.0382,35.2903 58.5,28.5 Z"/></g>
<g><path style="opacity:0.008" fill="#535353" d="M 213.5,38.5 C 212.733,37.828 212.066,36.9947 211.5,36C 213.061,35.8119 213.728,36.6453 213.5,38.5 Z"/></g>
<g><path style="opacity:0.004" fill="#000000" d="M 215.5,36.5 C 215.833,36.5 216.167,36.5 216.5,36.5C 217.5,36.8333 218.167,37.5 218.5,38.5C 218.167,38.5 217.833,38.5 217.5,38.5C 216.5,38.1667 215.833,37.5 215.5,36.5 Z"/></g>
<g><path style="opacity:0.004" fill="#a8a8a8" d="M 45.5,28.5 C 45.5,29.5 45.5,30.5 45.5,31.5C 45.1667,32.1667 44.8333,32.8333 44.5,33.5C 42.4131,34.5846 41.0798,36.2512 40.5,38.5C 40.6716,39.4916 40.3382,40.1583 39.5,40.5C 37.2104,38.9671 36.5437,39.3004 37.5,41.5C 36.4508,44.0452 35.4508,44.0452 34.5,41.5C 34.5,41.1667 34.5,40.8333 34.5,40.5C 38.2239,36.5548 41.8905,32.5548 45.5,28.5 Z"/></g>
<g><path style="opacity:0.004" fill="#dfdfdf" d="M 217.5,38.5 C 217.833,38.5 218.167,38.5 218.5,38.5C 219.906,38.9731 220.573,39.9731 220.5,41.5C 220.565,41.9382 220.399,42.2716 220,42.5C 218.519,41.5291 217.685,40.1958 217.5,38.5 Z"/></g>
<g><path style="opacity:0.004" fill="#000000" d="M 34.5,40.5 C 34.5,40.8333 34.5,41.1667 34.5,41.5C 33.8333,41.8333 33.1667,42.1667 32.5,42.5C 32.5,41.1667 33.1667,40.5 34.5,40.5 Z"/></g>
<g><path style="opacity:1" fill="#f8f8fa" d="M 136.5,52.5 C 138.265,59.7949 140.598,66.7949 143.5,73.5C 145.873,81.6848 148.54,89.6848 151.5,97.5C 153.779,103.954 155.112,110.621 155.5,117.5C 154.473,119.194 153.139,120.527 151.5,121.5C 146.5,121.5 141.5,121.5 136.5,121.5C 125.162,121.667 113.828,121.5 102.5,121C 100.816,119.791 99.4832,118.291 98.5,116.5C 102.15,103.856 105.816,91.1896 109.5,78.5C 111.946,73.0826 113.946,67.4159 115.5,61.5C 117.606,57.5089 118.939,53.1755 119.5,48.5C 120.823,46.2377 122.157,43.9044 123.5,41.5C 126.737,39.9854 129.737,40.3187 132.5,42.5C 134.059,45.8646 135.392,49.1979 136.5,52.5 Z"/></g>
<g><path style="opacity:0.004" fill="#cdcdcd" d="M 221.5,41.5 C 223.162,43.3627 224.829,45.3627 226.5,47.5C 224.692,48.3168 223.192,47.6502 222,45.5C 222.355,44.0406 222.189,42.7072 221.5,41.5 Z"/></g>
<g><path style="opacity:0.012" fill="#404040" d="M 215.5,36.5 C 215.833,37.5 216.5,38.1667 217.5,38.5C 217.685,40.1958 218.519,41.5291 220,42.5C 220.399,42.2716 220.565,41.9382 220.5,41.5C 220.833,41.5 221.167,41.5 221.5,41.5C 222.189,42.7072 222.355,44.0406 222,45.5C 223.192,47.6502 224.692,48.3168 226.5,47.5C 226.511,49.0174 227.177,50.1841 228.5,51C 227.833,51.3333 227.167,51.6667 226.5,52C 227.078,53.417 228.078,54.2504 229.5,54.5C 229.328,55.4916 229.662,56.1583 230.5,56.5C 231.189,57.7072 231.355,59.0406 231,60.5C 231.383,59.944 231.883,59.6107 232.5,59.5C 232.586,60.4959 232.252,61.3292 231.5,62C 233.734,63.6379 235.067,65.8045 235.5,68.5C 234.417,68.4606 233.417,68.1272 232.5,67.5C 231.457,65.1507 230.124,63.1507 228.5,61.5C 223.927,53.5862 218.927,45.9195 213.5,38.5C 214.167,37.8333 214.833,37.1667 215.5,36.5 Z"/></g>
<g><path style="opacity:0.008" fill="#afafaf" d="M 34.5,41.5 C 34.4567,44.0878 33.4567,46.2544 31.5,48C 31.8333,48.3333 32.1667,48.6667 32.5,49C 30.8333,50 29.1667,51 27.5,52C 27.9574,52.414 28.2907,52.914 28.5,53.5C 27.3698,54.6223 26.7031,55.9557 26.5,57.5C 25.4271,55.6531 25.4271,53.6531 26.5,51.5C 26.5,51.1667 26.5,50.8333 26.5,50.5C 27.5,50.1667 28.1667,49.5 28.5,48.5C 29.8333,48.1667 29.8333,47.8333 28.5,47.5C 29.81,46.4681 31.1433,44.8014 32.5,42.5C 33.1667,42.1667 33.8333,41.8333 34.5,41.5 Z"/></g>
<g><path style="opacity:0.004" fill="#b2b2b2" d="M 226.5,47.5 C 228.522,48.507 229.855,50.1737 230.5,52.5C 230.672,53.4916 230.338,54.1583 229.5,54.5C 228.078,54.2504 227.078,53.417 226.5,52C 227.167,51.6667 227.833,51.3333 228.5,51C 227.177,50.1841 226.511,49.0174 226.5,47.5 Z"/></g>
<g><path style="opacity:0.004" fill="#181818" d="M 28.5,47.5 C 28.5,47.8333 28.5,48.1667 28.5,48.5C 28.1667,49.5 27.5,50.1667 26.5,50.5C 25.6112,48.9748 26.2779,47.9748 28.5,47.5 Z"/></g>
<g><path style="opacity:0.012" fill="#373737" d="M 39.5,40.5 C 35.4658,46.8559 31.4658,53.1892 27.5,59.5C 27.6716,58.5084 27.3382,57.8417 26.5,57.5C 26.7031,55.9557 27.3698,54.6223 28.5,53.5C 28.2907,52.914 27.9574,52.414 27.5,52C 29.1667,51 30.8333,50 32.5,49C 32.1667,48.6667 31.8333,48.3333 31.5,48C 33.4567,46.2544 34.4567,44.0878 34.5,41.5C 35.4508,44.0452 36.4508,44.0452 37.5,41.5C 36.5437,39.3004 37.2104,38.9671 39.5,40.5 Z"/></g>
<g><path style="opacity:0.004" fill="#fefffe" d="M 24.5,52.5 C 23.8333,51.1667 23.8333,51.1667 24.5,52.5 Z"/></g>
<g><path style="opacity:1" fill="#222147" d="M 227.5,141.5 C 226.204,145.739 224.538,149.739 222.5,153.5C 222.649,152.448 222.483,151.448 222,150.5C 196.581,123.816 170.581,97.8162 144,72.5C 143.601,72.7284 143.435,73.0618 143.5,73.5C 140.598,66.7949 138.265,59.7949 136.5,52.5C 136.435,52.0618 136.601,51.7284 137,51.5C 167.035,81.7015 197.201,111.702 227.5,141.5 Z"/></g>
<g><path style="opacity:0.004" fill="#dcdcdc" d="M 230.5,52.5 C 231.906,52.9731 232.573,53.9731 232.5,55.5C 231.833,55.8333 231.167,56.1667 230.5,56.5C 229.662,56.1583 229.328,55.4916 229.5,54.5C 230.338,54.1583 230.672,53.4916 230.5,52.5 Z"/></g>
<g><path style="opacity:0.004" fill="#fefffe" d="M 24.5,54.5 C 24.5,55.8333 23.8333,56.5 22.5,56.5C 22.1307,54.0065 22.7973,53.3398 24.5,54.5 Z"/></g>
<g><path style="opacity:0.005" fill="#000000" d="M 232.5,55.5 C 232.5,55.8333 232.5,56.1667 232.5,56.5C 233.116,57.7978 233.116,58.7978 232.5,59.5C 231.883,59.6107 231.383,59.944 231,60.5C 231.355,59.0406 231.189,57.7072 230.5,56.5C 231.167,56.1667 231.833,55.8333 232.5,55.5 Z"/></g>
<g><path style="opacity:0.004" fill="#f3f3f3" d="M 21.5,59.5 C 21.6495,60.552 21.4828,61.552 21,62.5C 20.0862,61.3463 19.2529,61.513 18.5,63C 18.7284,63.3988 19.0618,63.5654 19.5,63.5C 19.5,63.8333 19.5,64.1667 19.5,64.5C 18.8333,64.5 18.1667,64.5 17.5,64.5C 17.3692,61.6333 18.7026,59.9666 21.5,59.5 Z"/></g>
<g><path style="opacity:1" fill="#29266d" d="M 37.5,52.5 C 57.2229,71.7205 77.0562,91.3872 97,111.5C 97.1981,113.382 97.6981,115.048 98.5,116.5C 99.4832,118.291 100.816,119.791 102.5,121C 113.828,121.5 125.162,121.667 136.5,121.5C 140.265,124.825 143.931,128.325 147.5,132C 131.661,132.169 115.995,132.669 100.5,133.5C 98.1475,134.34 96.1475,135.674 94.5,137.5C 94.2714,135.567 93.4381,133.9 92,132.5C 71.0451,111.713 49.8784,91.0462 28.5,70.5C 30.4651,63.9031 33.4651,57.9031 37.5,52.5 Z"/></g>
<g><path style="opacity:0.012" fill="#575757" d="M 22.5,57.5 C 24.6877,58.5357 24.6877,60.0357 22.5,62C 22.9574,62.414 23.2907,62.914 23.5,63.5C 21.2634,66.822 19.5968,69.9887 18.5,73C 17.552,73.4828 16.552,73.6495 15.5,73.5C 15.4326,72.0413 15.7659,70.7079 16.5,69.5C 16.5,68.8333 16.1667,68.5 15.5,68.5C 16.1667,67.1667 16.8333,65.8333 17.5,64.5C 18.1667,64.5 18.8333,64.5 19.5,64.5C 20.8333,64.1667 20.8333,63.8333 19.5,63.5C 19.0618,63.5654 18.7284,63.3988 18.5,63C 19.2529,61.513 20.0862,61.3463 21,62.5C 21.4828,61.552 21.6495,60.552 21.5,59.5C 19.9689,58.0755 20.3023,57.4088 22.5,57.5 Z"/></g>
<g><path style="opacity:0.008" fill="#a5a5a5" d="M 232.5,56.5 C 234.572,58.3495 235.905,60.6829 236.5,63.5C 236.389,64.1174 236.056,64.6174 235.5,65C 236.924,66.8159 238.59,68.3159 240.5,69.5C 241.907,73.5105 243.24,77.5105 244.5,81.5C 242.62,81.7709 241.287,81.1042 240.5,79.5C 240.938,79.5654 241.272,79.3988 241.5,79C 241.105,76.2195 239.772,74.0528 237.5,72.5C 237.833,71.8333 238.167,71.1667 238.5,70.5C 237.218,70.9125 236.218,70.2458 235.5,68.5C 235.067,65.8045 233.734,63.6379 231.5,62C 232.252,61.3292 232.586,60.4959 232.5,59.5C 233.116,58.7978 233.116,57.7978 232.5,56.5 Z"/></g>
<g><path style="opacity:0.004" fill="#171717" d="M 236.5,63.5 C 238.121,65.2641 239.454,67.2641 240.5,69.5C 238.59,68.3159 236.924,66.8159 235.5,65C 236.056,64.6174 236.389,64.1174 236.5,63.5 Z"/></g>
<g><path style="opacity:0.004" fill="#fefffe" d="M 15.5,68.5 C 16.1667,68.5 16.5,68.8333 16.5,69.5C 15.7659,70.7079 15.4326,72.0413 15.5,73.5C 14.8333,73.5 14.1667,73.5 13.5,73.5C 14.1712,72.1529 14.1712,70.9862 13.5,70C 14.0442,69.2828 14.7109,68.7828 15.5,68.5 Z"/></g>
<g><path style="opacity:1" fill="#2b2873" d="M 28.5,70.5 C 49.8784,91.0462 71.0451,111.713 92,132.5C 93.4381,133.9 94.2714,135.567 94.5,137.5C 93.6103,139.782 93.4436,142.115 94,144.5C 99.245,155.417 106.412,164.917 115.5,173C 123.5,177.667 131.5,177.667 139.5,173C 142.473,170.706 145.14,168.206 147.5,165.5C 148.496,165.586 149.329,165.252 150,164.5C 160.248,174.816 170.581,185.15 181,195.5C 181.464,196.094 181.631,196.761 181.5,197.5C 170.03,204.407 157.697,208.74 144.5,210.5C 104.883,169.216 64.5496,128.549 23.5,88.5C 24.2363,82.2191 25.903,76.2191 28.5,70.5 Z"/></g>
<g><path style="opacity:1" fill="#24214e" d="M 222.5,153.5 C 221.083,156.669 219.417,159.669 217.5,162.5C 196.286,139.784 174.453,117.451 152,95.5C 151.536,96.0944 151.369,96.7611 151.5,97.5C 148.54,89.6848 145.873,81.6848 143.5,73.5C 143.435,73.0618 143.601,72.7284 144,72.5C 170.581,97.8162 196.581,123.816 222,150.5C 222.483,151.448 222.649,152.448 222.5,153.5 Z"/></g>
<g><path style="opacity:0.004" fill="#e8e8e8" d="M 13.5,73.5 C 13.9175,74.2216 14.5842,74.7216 15.5,75C 14.2657,77.0721 12.5991,78.5721 10.5,79.5C 11.5139,77.4261 12.5139,75.4261 13.5,73.5 Z"/></g>
<g><path style="opacity:0.005" fill="#414141" d="M 240.5,79.5 C 241.287,81.1042 242.62,81.7709 244.5,81.5C 245.237,83.3046 246.237,84.9713 247.5,86.5C 247.137,87.1835 246.804,87.8501 246.5,88.5C 243.45,91.0234 241.95,90.0234 242,85.5C 241.167,84 240,82.8333 238.5,82C 238.982,80.9916 239.148,79.825 239,78.5C 239.383,79.056 239.883,79.3893 240.5,79.5 Z"/></g>
<g><path style="opacity:1" fill="#2c2860" d="M 125.5,72.5 C 127.144,72.2865 128.644,72.6198 130,73.5C 132.403,83.0404 135.403,92.3738 139,101.5C 139.667,103.167 139.667,104.833 139,106.5C 131.253,107.482 123.42,107.815 115.5,107.5C 117.432,95.4392 120.765,83.7725 125.5,72.5 Z"/></g>
<g><path style="opacity:0.027" fill="#252525" d="M 26.5,51.5 C 25.4271,53.6531 25.4271,55.6531 26.5,57.5C 27.3382,57.8417 27.6716,58.5084 27.5,59.5C 25.6951,64.9158 23.6951,70.2491 21.5,75.5C 19.6214,75.3932 19.2881,75.8932 20.5,77C 19.1667,78.3333 17.8333,79.6667 16.5,81C 17.1667,81.3333 17.8333,81.6667 18.5,82C 17.1667,83 17.1667,84 18.5,85C 15.3544,87.2288 13.0211,89.5621 11.5,92C 12.9561,92.4226 13.4561,93.2559 13,94.5C 12.0138,95.1712 10.8471,95.1712 9.5,94.5C 9.41423,93.5041 9.74756,92.6708 10.5,92C 9.30943,91.3021 8.30943,90.4687 7.5,89.5C 7.5,89.1667 7.5,88.8333 7.5,88.5C 8.74975,88.5774 9.58309,89.244 10,90.5C 11.8241,89.2513 11.6574,88.0847 9.5,87C 10.2524,86.3292 10.5858,85.4959 10.5,84.5C 10.1667,84.5 9.83333,84.5 9.5,84.5C 9.62867,82.7839 9.962,81.1172 10.5,79.5C 12.5991,78.5721 14.2657,77.0721 15.5,75C 14.5842,74.7216 13.9175,74.2216 13.5,73.5C 14.1667,73.5 14.8333,73.5 15.5,73.5C 16.552,73.6495 17.552,73.4828 18.5,73C 19.5968,69.9887 21.2634,66.822 23.5,63.5C 23.2907,62.914 22.9574,62.414 22.5,62C 24.6877,60.0357 24.6877,58.5357 22.5,57.5C 22.5,57.1667 22.5,56.8333 22.5,56.5C 23.8333,56.5 24.5,55.8333 24.5,54.5C 24.5,53.8333 24.5,53.1667 24.5,52.5C 25.1667,52.1667 25.8333,51.8333 26.5,51.5 Z"/></g>
<g><path style="opacity:0.004" fill="#fefffe" d="M 10.5,84.5 C 10.4614,83.2438 10.9614,82.2438 12,81.5C 12.5847,82.9976 12.0847,83.9976 10.5,84.5 Z"/></g>
<g><path style="opacity:0.008" fill="#afafaf" d="M 9.5,84.5 C 9.83333,84.5 10.1667,84.5 10.5,84.5C 10.5858,85.4959 10.2524,86.3292 9.5,87C 11.6574,88.0847 11.8241,89.2513 10,90.5C 9.58309,89.244 8.74975,88.5774 7.5,88.5C 7.98869,87.0048 8.65536,85.6715 9.5,84.5 Z"/></g>
<g><path style="opacity:0.008" fill="#878787" d="M 7.5,89.5 C 8.30943,90.4687 9.30943,91.3021 10.5,92C 9.74756,92.6708 9.41423,93.5041 9.5,94.5C 8.83333,94.5 8.16667,94.5 7.5,94.5C 7.5,92.8333 7.5,91.1667 7.5,89.5 Z"/></g>
<g><path style="opacity:0.004" fill="#000000" d="M 247.5,91.5 C 248.833,92.1667 248.833,92.1667 247.5,91.5 Z"/></g>
<g><path style="opacity:0.024" fill="#515151" d="M 246.5,91.5 C 246.5,92.1667 246.833,92.5 247.5,92.5C 247.5,92.8333 247.5,93.1667 247.5,93.5C 246.234,94.0899 244.901,94.5899 243.5,95C 244.357,96.2228 245.357,97.3894 246.5,98.5C 247.167,98.5 247.5,98.8333 247.5,99.5C 247.12,100.133 246.787,100.8 246.5,101.5C 243.107,99.0965 242.107,95.9298 243.5,92C 244.416,91.6258 245.25,91.1258 246,90.5C 246.399,90.7284 246.565,91.0618 246.5,91.5 Z"/></g>
<g><path style="opacity:0.009" fill="#000000" d="M 247.5,93.5 C 247.833,94.1667 248.167,94.8333 248.5,95.5C 247.761,95.369 247.094,95.5357 246.5,96C 247.598,96.7697 247.598,97.603 246.5,98.5C 245.357,97.3894 244.357,96.2228 243.5,95C 244.901,94.5899 246.234,94.0899 247.5,93.5 Z"/></g>
<g><path style="opacity:0.004" fill="#e6e6e6" d="M 248.5,95.5 C 249.434,96.5676 249.768,97.901 249.5,99.5C 248.833,99.5 248.167,99.5 247.5,99.5C 247.5,98.8333 247.167,98.5 246.5,98.5C 247.598,97.603 247.598,96.7697 246.5,96C 247.094,95.5357 247.761,95.369 248.5,95.5 Z"/></g>
<g><path style="opacity:0.004" fill="#fefffe" d="M 6.5,96.5 C 7.16667,96.5 7.5,96.8333 7.5,97.5C 7.5,98.5 7.5,99.5 7.5,100.5C 6.5,100.5 5.5,100.5 4.5,100.5C 6.02023,99.1501 6.6869,97.8168 6.5,96.5 Z"/></g>
<g><path style="opacity:0.012" fill="#474747" d="M 7.5,97.5 C 11.7714,99.3027 12.1048,101.303 8.5,103.5C 10.509,106.955 9.50899,109.288 5.5,110.5C 5.5,109.833 5.16667,109.5 4.5,109.5C 4.83333,108.833 5.16667,108.167 5.5,107.5C 6.83333,105.5 6.83333,103.5 5.5,101.5C 4.83333,101.5 4.5,101.167 4.5,100.5C 5.5,100.5 6.5,100.5 7.5,100.5C 7.5,99.5 7.5,98.5 7.5,97.5 Z"/></g>
<g><path style="opacity:0.004" fill="#d0d0d0" d="M 5.5,101.5 C 6.83333,103.5 6.83333,105.5 5.5,107.5C 5.04607,105.741 5.04607,103.741 5.5,101.5 Z"/></g>
<g><path style="opacity:0.029" fill="#303030" d="M 249.5,104.5 C 249.833,106.5 250.167,108.5 250.5,110.5C 248.207,111.301 248.54,111.968 251.5,112.5C 251.567,113.959 251.234,115.292 250.5,116.5C 250.5,117.167 250.167,117.5 249.5,117.5C 249.586,116.504 249.252,115.671 248.5,115C 246.097,113.596 244.097,112.429 242.5,111.5C 243.167,110.833 243.833,110.167 244.5,109.5C 243.836,106.82 243.836,104.986 244.5,104C 245.449,103.383 246.282,103.549 247,104.5C 247.333,103.833 247.667,103.167 248,102.5C 248.278,103.416 248.778,104.082 249.5,104.5 Z"/></g>
<g><path style="opacity:0.004" fill="#fefffe" d="M 250.5,110.5 C 251.338,110.842 251.672,111.508 251.5,112.5C 248.54,111.968 248.207,111.301 250.5,110.5 Z"/></g>
<g><path style="opacity:0.004" fill="#fefffe" d="M 250.5,116.5 C 251.404,117.209 251.737,118.209 251.5,119.5C 249.797,120.66 249.131,119.993 249.5,117.5C 250.167,117.5 250.5,117.167 250.5,116.5 Z"/></g>
<g><path style="opacity:0.008" fill="#a1a1a1" d="M 4.5,109.5 C 5.16667,109.5 5.5,109.833 5.5,110.5C 5.9528,111.458 6.61947,112.292 7.5,113C 6.83333,113.333 6.16667,113.667 5.5,114C 6.16108,115.86 6.16108,117.36 5.5,118.5C 5.59263,120.247 5.92597,122.081 6.5,124C 5.52887,125.041 4.52887,125.874 3.5,126.5C 3.3275,120.346 3.66084,114.679 4.5,109.5 Z"/></g>
<g><path style="opacity:0.009" fill="#3c3c3c" d="M 249.5,117.5 C 249.131,119.993 249.797,120.66 251.5,119.5C 251.324,123.12 250.99,126.453 250.5,129.5C 249.595,130.702 249.595,132.036 250.5,133.5C 250.5,134.167 250.5,134.833 250.5,135.5C 249.167,137.5 249.167,139.5 250.5,141.5C 250.5,141.833 250.5,142.167 250.5,142.5C 249.5,143.167 248.5,143.833 247.5,144.5C 247.657,143.127 247.49,141.793 247,140.5C 246.549,142.929 245.715,143.096 244.5,141C 245.041,137.687 246.041,134.354 247.5,131C 244.942,129.62 244.942,128.12 247.5,126.5C 246.438,123.897 246.272,121.23 247,118.5C 247.671,117.748 248.504,117.414 249.5,117.5 Z"/></g>
<g><path style="opacity:0.004" fill="#fefffe" d="M 4.5,133.5 C 3.59603,132.791 3.26269,131.791 3.5,130.5C 4.11742,130.389 4.61742,130.056 5,129.5C 5.76498,131.066 5.59832,132.399 4.5,133.5 Z"/></g>
<g><path style="opacity:0.004" fill="#fefffe" d="M 250.5,129.5 C 251.833,130.833 251.833,132.167 250.5,133.5C 249.595,132.036 249.595,130.702 250.5,129.5 Z"/></g>
<g><path style="opacity:0.004" fill="#dfdfdf" d="M 4.5,135.5 C 5.93127,136.78 6.59794,138.447 6.5,140.5C 6.16667,140.5 5.83333,140.5 5.5,140.5C 5.0472,139.542 4.38053,138.708 3.5,138C 4.25244,137.329 4.58577,136.496 4.5,135.5 Z"/></g>
<g><path style="opacity:0.004" fill="#fefffe" d="M 250.5,135.5 C 250.758,137.19 250.758,139.19 250.5,141.5C 249.167,139.5 249.167,137.5 250.5,135.5 Z"/></g>
<g><path style="opacity:0.202" fill="#090909" d="M 228.5,61.5 C 230.124,63.1507 231.457,65.1507 232.5,67.5C 233.417,68.1272 234.417,68.4606 235.5,68.5C 236.218,70.2458 237.218,70.9125 238.5,70.5C 238.167,71.1667 237.833,71.8333 237.5,72.5C 239.772,74.0528 241.105,76.2195 241.5,79C 241.272,79.3988 240.938,79.5654 240.5,79.5C 239.883,79.3893 239.383,79.056 239,78.5C 239.148,79.825 238.982,80.9916 238.5,82C 240,82.8333 241.167,84 242,85.5C 241.95,90.0234 243.45,91.0234 246.5,88.5C 247.11,89.391 247.443,90.391 247.5,91.5C 247.167,91.5 246.833,91.5 246.5,91.5C 246.565,91.0618 246.399,90.7284 246,90.5C 245.25,91.1258 244.416,91.6258 243.5,92C 242.107,95.9298 243.107,99.0965 246.5,101.5C 246.787,100.8 247.12,100.133 247.5,99.5C 248.167,99.5 248.833,99.5 249.5,99.5C 249.815,101.069 249.815,102.735 249.5,104.5C 248.778,104.082 248.278,103.416 248,102.5C 247.667,103.167 247.333,103.833 247,104.5C 246.282,103.549 245.449,103.383 244.5,104C 243.836,104.986 243.836,106.82 244.5,109.5C 243.833,110.167 243.167,110.833 242.5,111.5C 244.097,112.429 246.097,113.596 248.5,115C 249.252,115.671 249.586,116.504 249.5,117.5C 248.504,117.414 247.671,117.748 247,118.5C 246.272,121.23 246.438,123.897 247.5,126.5C 244.942,128.12 244.942,129.62 247.5,131C 246.041,134.354 245.041,137.687 244.5,141C 245.715,143.096 246.549,142.929 247,140.5C 247.49,141.793 247.657,143.127 247.5,144.5C 246.637,143.537 245.97,143.537 245.5,144.5C 246.833,145.833 246.833,147.167 245.5,148.5C 246.036,150.145 246.703,150.478 247.5,149.5C 248.167,149.5 248.5,149.833 248.5,150.5C 248.443,151.609 248.11,152.609 247.5,153.5C 246.778,153.082 246.278,152.416 246,151.5C 245.654,153.218 245.154,154.885 244.5,156.5C 244.624,157.107 244.957,157.44 245.5,157.5C 245.5,157.833 245.5,158.167 245.5,158.5C 244.624,158.369 243.957,158.702 243.5,159.5C 244.653,160.687 244.653,161.687 243.5,162.5C 243.217,161.711 242.717,161.044 242,160.5C 240.647,161.685 239.48,163.019 238.5,164.5C 239.376,165.251 240.376,165.751 241.5,166C 240.906,166.464 240.239,166.631 239.5,166.5C 236.164,168.44 233.664,171.774 232,176.5C 229.849,173.888 229.015,173.888 229.5,176.5C 227.076,178.946 227.076,181.446 229.5,184C 229,184.5 228.5,185 228,185.5C 227.333,180.167 226.667,180.167 226,185.5C 221.208,188.094 220.042,191.094 222.5,194.5C 225.461,193.817 225.795,192.984 223.5,192C 224.762,190.073 225.762,190.24 226.5,192.5C 225.64,194.614 223.973,195.78 221.5,196C 223.134,196.494 224.801,196.66 226.5,196.5C 226.5,197.5 226.5,198.5 226.5,199.5C 225.508,199.672 224.842,199.338 224.5,198.5C 224.265,197.903 223.765,197.57 223,197.5C 221.477,199.354 219.644,200.854 217.5,202C 218.756,202.417 219.423,203.25 219.5,204.5C 219.5,204.833 219.5,205.167 219.5,205.5C 218.833,205.167 218.167,204.833 217.5,204.5C 214.93,207.488 211.597,210.488 207.5,213.5C 208.087,212.233 208.087,211.233 207.5,210.5C 204.517,212.215 201.517,213.049 198.5,213C 197.236,215.601 195.569,217.934 193.5,220C 192.852,221.44 192.519,222.94 192.5,224.5C 187.556,223.477 183.222,224.977 179.5,229C 180.749,230.824 181.915,230.657 183,228.5C 183.49,229.793 183.657,231.127 183.5,232.5C 183.5,232.833 183.5,233.167 183.5,233.5C 182.778,233.082 182.278,232.416 182,231.5C 181.617,232.056 181.117,232.389 180.5,232.5C 177.774,229.084 175.274,229.417 173,233.5C 172.125,231.487 170.791,231.487 169,233.5C 168.308,232.975 167.808,232.308 167.5,231.5C 168.529,231.704 169.529,231.204 170.5,230C 168.479,229.487 166.979,228.32 166,226.5C 166.311,227.935 166.145,229.268 165.5,230.5C 160.35,232.158 156.184,235.158 153,239.5C 151.333,238.5 149.667,237.5 148,236.5C 147.517,237.448 147.351,238.448 147.5,239.5C 144.927,238.781 142.427,237.781 140,236.5C 138.392,237.709 136.892,239.709 135.5,242.5C 133.568,241.37 133.234,241.704 134.5,243.5C 133.081,244.451 131.415,244.784 129.5,244.5C 130.058,243.21 131.058,242.377 132.5,242C 130.196,241.105 127.862,240.271 125.5,239.5C 126.025,238.808 126.692,238.308 127.5,238C 125.782,237.654 124.115,237.154 122.5,236.5C 121.575,237.641 120.741,237.641 120,236.5C 119.252,238.332 118.252,239.999 117,241.5C 116.667,240.833 116.333,240.167 116,239.5C 114.093,239.421 112.093,239.754 110,240.5C 110.855,238.385 111.355,236.052 111.5,233.5C 110.07,233.421 108.736,233.754 107.5,234.5C 105.8,231.882 103.634,231.216 101,232.5C 100.311,231.643 99.4776,230.977 98.5,230.5C 99.0164,231.758 98.3497,232.758 96.5,233.5C 93.6012,231.684 90.6012,231.351 87.5,232.5C 84.6826,228.611 81.1826,227.611 77,229.5C 75.0838,227.194 72.5838,225.861 69.5,225.5C 68.265,226.34 67.265,227.34 66.5,228.5C 65.2905,228.068 64.2905,227.401 63.5,226.5C 64.7562,226.539 65.7562,226.039 66.5,225C 64.7373,223.398 62.904,222.898 61,223.5C 59.8333,221.833 58.6667,220.167 57.5,218.5C 56.4593,220.991 55.6259,220.991 55,218.5C 54.1841,219.823 53.0174,220.489 51.5,220.5C 51.5,220.167 51.5,219.833 51.5,219.5C 52.6006,218.152 53.6006,216.652 54.5,215C 53.7471,213.513 52.9138,213.346 52,214.5C 51,212.833 49.6667,211.5 48,210.5C 47.6667,210.833 47.3333,211.167 47,211.5C 46.6667,210.5 46.3333,209.5 46,208.5C 45.0347,210.26 43.868,210.594 42.5,209.5C 44.5794,207.843 44.746,205.843 43,203.5C 42,202.167 41,202.167 40,203.5C 39,202.5 38,201.5 37,200.5C 37.4087,198.775 37.2421,197.108 36.5,195.5C 34.8849,194.846 33.2182,194.346 31.5,194C 32.1667,193.667 32.8333,193.333 33.5,193C 31.1466,191.745 30.4799,190.078 31.5,188C 31.1377,186.775 30.6377,185.609 30,184.5C 29.6667,184.833 29.3333,185.167 29,185.5C 28.51,184.207 28.3433,182.873 28.5,181.5C 24.1238,182.112 23.4571,180.946 26.5,178C 23.5149,175.547 22.8482,172.547 24.5,169C 23.5838,168.626 22.7504,168.126 22,167.5C 21.2411,169.063 20.0744,170.063 18.5,170.5C 16.9005,169.318 16.5672,167.985 17.5,166.5C 15.2038,165.632 14.5371,164.298 15.5,162.5C 17.9312,161.259 17.9312,160.092 15.5,159C 16.4467,156.223 15.4467,154.223 12.5,153C 12.8333,152.667 13.1667,152.333 13.5,152C 12.1667,149.333 10.8333,146.667 9.5,144C 10.6379,142.266 11.1379,140.432 11,138.5C 10.3333,139.167 9.66667,139.833 9,140.5C 9.02114,136.991 8.18781,133.825 6.5,131C 7.62414,130.161 8.29081,128.994 8.5,127.5C 7.57354,125.23 7.2402,123.063 7.5,121C 8.30806,120.692 8.97473,120.192 9.5,119.5C 8.16667,118.5 8.16667,117.5 9.5,116.5C 9.33333,116.167 9.16667,115.833 9,115.5C 8.24109,117.063 7.07442,118.063 5.5,118.5C 6.16108,117.36 6.16108,115.86 5.5,114C 6.16667,113.667 6.83333,113.333 7.5,113C 6.61947,112.292 5.9528,111.458 5.5,110.5C 9.50899,109.288 10.509,106.955 8.5,103.5C 12.1048,101.303 11.7714,99.3027 7.5,97.5C 7.5,96.8333 7.16667,96.5 6.5,96.5C 4.96895,95.0755 5.30228,94.4088 7.5,94.5C 8.16667,94.5 8.83333,94.5 9.5,94.5C 10.8471,95.1712 12.0138,95.1712 13,94.5C 13.4561,93.2559 12.9561,92.4226 11.5,92C 13.0211,89.5621 15.3544,87.2288 18.5,85C 17.1667,84 17.1667,83 18.5,82C 17.8333,81.6667 17.1667,81.3333 16.5,81C 17.8333,79.6667 19.1667,78.3333 20.5,77C 19.2881,75.8932 19.6214,75.3932 21.5,75.5C 16.8198,94.3701 16.3198,113.37 20,132.5C 30.1535,168.982 52.6535,194.482 87.5,209C 133.066,223.89 173.233,215.056 208,182.5C 239.019,146.386 245.853,106.052 228.5,61.5 Z"/></g>
<g><path style="opacity:1" fill="#fdfcfd" d="M 100.5,133.5 C 119.593,133.025 138.593,133.525 157.5,135C 160.194,137.653 161.027,140.82 160,144.5C 156.842,152.156 152.676,159.156 147.5,165.5C 145.14,168.206 142.473,170.706 139.5,173C 131.5,177.667 123.5,177.667 115.5,173C 106.412,164.917 99.245,155.417 94,144.5C 93.4436,142.115 93.6103,139.782 94.5,137.5C 96.1475,135.674 98.1475,134.34 100.5,133.5 Z"/></g>
<g><path style="opacity:1" fill="#2d2c82" d="M 113.5,210.5 C 71.2807,204.463 42.4473,181.463 27,141.5C 24.2805,134.083 22.7805,126.417 22.5,118.5C 22.3359,115.813 22.5026,113.146 23,110.5C 56.1667,143.667 89.3333,176.833 122.5,210C 119.518,210.498 116.518,210.665 113.5,210.5 Z"/></g>
<g><path style="opacity:1" fill="#26225b" d="M 211.5,170.5 C 210.581,173.089 208.914,175.089 206.5,176.5C 188.5,157.833 170.167,139.5 151.5,121.5C 153.139,120.527 154.473,119.194 155.5,117.5C 156.302,116.048 156.802,114.382 157,112.5C 175.195,131.029 193.695,149.195 212.5,167C 211.833,167.333 211.167,167.667 210.5,168C 211.252,168.671 211.586,169.504 211.5,170.5 Z"/></g>
<g><path style="opacity:1" fill="#252254" d="M 217.5,162.5 C 215.853,165.473 213.853,168.14 211.5,170.5C 211.586,169.504 211.252,168.671 210.5,168C 211.167,167.667 211.833,167.333 212.5,167C 193.695,149.195 175.195,131.029 157,112.5C 156.802,114.382 156.302,116.048 155.5,117.5C 155.112,110.621 153.779,103.954 151.5,97.5C 151.369,96.7611 151.536,96.0944 152,95.5C 174.453,117.451 196.286,139.784 217.5,162.5 Z"/></g>
<g><path style="opacity:1" fill="#2b2a79" d="M 23.5,88.5 C 64.5496,128.549 104.883,169.216 144.5,210.5C 134.019,211.746 123.686,211.746 113.5,210.5C 116.518,210.665 119.518,210.498 122.5,210C 89.3333,176.833 56.1667,143.667 23,110.5C 22.5026,113.146 22.3359,115.813 22.5,118.5C 21.0333,108.543 21.3666,98.5431 23.5,88.5 Z"/></g>
<g><path style="opacity:0.004" fill="#eaeaea" d="M 250.5,142.5 C 250.198,145.373 249.531,148.039 248.5,150.5C 248.5,149.833 248.167,149.5 247.5,149.5C 247.5,147.833 247.5,146.167 247.5,144.5C 248.5,143.833 249.5,143.167 250.5,142.5 Z"/></g>
<g><path style="opacity:0.008" fill="#666666" d="M 247.5,144.5 C 247.5,146.167 247.5,147.833 247.5,149.5C 246.703,150.478 246.036,150.145 245.5,148.5C 246.833,147.167 246.833,145.833 245.5,144.5C 245.97,143.537 246.637,143.537 247.5,144.5 Z"/></g>
<g><path style="opacity:1" fill="#2a2667" d="M 136.5,121.5 C 141.5,121.5 146.5,121.5 151.5,121.5C 170.167,139.5 188.5,157.833 206.5,176.5C 199.655,185.351 191.322,192.351 181.5,197.5C 181.631,196.761 181.464,196.094 181,195.5C 170.581,185.15 160.248,174.816 150,164.5C 149.329,165.252 148.496,165.586 147.5,165.5C 152.676,159.156 156.842,152.156 160,144.5C 161.027,140.82 160.194,137.653 157.5,135C 138.593,133.525 119.593,133.025 100.5,133.5C 115.995,132.669 131.661,132.169 147.5,132C 143.931,128.325 140.265,124.825 136.5,121.5 Z"/></g>
<g><path style="opacity:0.012" fill="#696969" d="M 5.5,140.5 C 5.83333,140.5 6.16667,140.5 6.5,140.5C 8.67596,141.713 9.00929,143.38 7.5,145.5C 8.32496,146.386 9.32496,146.719 10.5,146.5C 10.7733,148.451 10.1066,149.951 8.5,151C 11.4016,151.919 11.7349,152.752 9.5,153.5C 9.15829,152.662 8.49162,152.328 7.5,152.5C 6.71087,152.217 6.0442,151.717 5.5,151C 5.54356,147.355 5.54356,143.855 5.5,140.5 Z"/></g>
<g><path style="opacity:0.005" fill="#000000" d="M 7.5,152.5 C 8.49162,152.328 9.15829,152.662 9.5,153.5C 8.59603,154.209 8.26269,155.209 8.5,156.5C 6.25521,155.708 5.92187,154.375 7.5,152.5 Z"/></g>
<g><path style="opacity:0.008" fill="#a3a3a3" d="M 9.5,153.5 C 12.1537,155.572 11.8204,157.239 8.5,158.5C 8.5,157.833 8.5,157.167 8.5,156.5C 8.26269,155.209 8.59603,154.209 9.5,153.5 Z"/></g>
<g><path style="opacity:0.008" fill="#8e8e8e" d="M 247.5,153.5 C 247.771,155.38 247.104,156.713 245.5,157.5C 244.957,157.44 244.624,157.107 244.5,156.5C 245.154,154.885 245.654,153.218 246,151.5C 246.278,152.416 246.778,153.082 247.5,153.5 Z"/></g>
<g><path style="opacity:0.03" fill="#2a2a2a" d="M 15.5,162.5 C 13.1542,161.477 10.8209,160.477 8.5,159.5C 7.16667,159.167 7.16667,158.833 8.5,158.5C 11.8204,157.239 12.1537,155.572 9.5,153.5C 11.7349,152.752 11.4016,151.919 8.5,151C 10.1066,149.951 10.7733,148.451 10.5,146.5C 9.32496,146.719 8.32496,146.386 7.5,145.5C 9.00929,143.38 8.67596,141.713 6.5,140.5C 6.59794,138.447 5.93127,136.78 4.5,135.5C 3.49367,135.062 3.49367,134.396 4.5,133.5C 5.59832,132.399 5.76498,131.066 5,129.5C 4.61742,130.056 4.11742,130.389 3.5,130.5C 3.5,129.167 3.5,127.833 3.5,126.5C 4.52887,125.874 5.52887,125.041 6.5,124C 5.92597,122.081 5.59263,120.247 5.5,118.5C 7.07442,118.063 8.24109,117.063 9,115.5C 9.16667,115.833 9.33333,116.167 9.5,116.5C 8.16667,117.5 8.16667,118.5 9.5,119.5C 8.97473,120.192 8.30806,120.692 7.5,121C 7.2402,123.063 7.57354,125.23 8.5,127.5C 8.29081,128.994 7.62414,130.161 6.5,131C 8.18781,133.825 9.02114,136.991 9,140.5C 9.66667,139.833 10.3333,139.167 11,138.5C 11.1379,140.432 10.6379,142.266 9.5,144C 10.8333,146.667 12.1667,149.333 13.5,152C 13.1667,152.333 12.8333,152.667 12.5,153C 15.4467,154.223 16.4467,156.223 15.5,159C 17.9312,160.092 17.9312,161.259 15.5,162.5 Z"/></g>
<g><path style="opacity:0.004" fill="#fefffe" d="M 245.5,158.5 C 245.5,158.833 245.5,159.167 245.5,159.5C 245.926,161.139 245.926,162.472 245.5,163.5C 244.508,163.672 243.842,163.338 243.5,162.5C 244.653,161.687 244.653,160.687 243.5,159.5C 243.957,158.702 244.624,158.369 245.5,158.5 Z"/></g>
<g><path style="opacity:0.004" fill="#3b3b3b" d="M 245.5,159.5 C 245.5,159.167 245.5,158.833 245.5,158.5C 246.376,158.369 247.043,158.702 247.5,159.5C 247.03,160.463 246.363,160.463 245.5,159.5 Z"/></g>
<g><path style="opacity:0.004" fill="#eaeaea" d="M 9.5,162.5 C 10.9733,163.072 12.3066,163.905 13.5,165C 13.7777,167.139 13.7777,169.305 13.5,171.5C 12.1871,168.875 10.5204,166.375 8.5,164C 9.05596,163.617 9.38929,163.117 9.5,162.5 Z"/></g>
<g><path style="opacity:0.008" fill="#616161" d="M 243.5,162.5 C 243.842,163.338 244.508,163.672 245.5,163.5C 245.355,166.763 244.021,169.763 241.5,172.5C 241.253,170.025 240.587,170.025 239.5,172.5C 239.957,173.298 240.624,173.631 241.5,173.5C 241.879,176.567 240.879,177.567 238.5,176.5C 237.141,173.555 237.807,171.055 240.5,169C 239.748,168.329 239.414,167.496 239.5,166.5C 240.239,166.631 240.906,166.464 241.5,166C 240.376,165.751 239.376,165.251 238.5,164.5C 239.48,163.019 240.647,161.685 242,160.5C 242.717,161.044 243.217,161.711 243.5,162.5 Z"/></g>
<g><path style="opacity:0.004" fill="#fefffe" d="M 241.5,172.5 C 241.5,172.833 241.5,173.167 241.5,173.5C 240.624,173.631 239.957,173.298 239.5,172.5C 240.587,170.025 241.253,170.025 241.5,172.5 Z"/></g>
<g><path style="opacity:0.004" fill="#d0d0d0" d="M 15.5,177.5 C 14.3995,176.395 13.7329,175.062 13.5,173.5C 14.1174,173.389 14.6174,173.056 15,172.5C 15.4017,173.872 15.9017,175.205 16.5,176.5C 16.3764,177.107 16.0431,177.44 15.5,177.5 Z"/></g>
<g><path style="opacity:0.006" fill="#212121" d="M 239.5,166.5 C 239.414,167.496 239.748,168.329 240.5,169C 237.807,171.055 237.141,173.555 238.5,176.5C 239.354,178.035 239.354,179.368 238.5,180.5C 236.69,179.045 235.023,179.212 233.5,181C 233.912,182.564 234.245,184.064 234.5,185.5C 234.833,185.5 235.167,185.5 235.5,185.5C 235.573,187.027 234.906,188.027 233.5,188.5C 231.427,189.3 229.76,190.633 228.5,192.5C 227.833,192.5 227.167,192.5 226.5,192.5C 225.762,190.24 224.762,190.073 223.5,192C 225.795,192.984 225.461,193.817 222.5,194.5C 220.042,191.094 221.208,188.094 226,185.5C 226.667,180.167 227.333,180.167 228,185.5C 228.5,185 229,184.5 229.5,184C 227.076,181.446 227.076,178.946 229.5,176.5C 229.015,173.888 229.849,173.888 232,176.5C 233.664,171.774 236.164,168.44 239.5,166.5 Z"/></g>
<g><path style="opacity:0.004" fill="#e4e4e4" d="M 20.5,184.5 C 19.8333,184.5 19.1667,184.5 18.5,184.5C 17.7659,183.292 17.4326,181.959 17.5,180.5C 17.369,179.761 17.5357,179.094 18,178.5C 18.6552,180.628 19.4886,182.628 20.5,184.5 Z"/></g>
<g><path style="opacity:0.012" fill="#424242" d="M 8.5,159.5 C 10.8209,160.477 13.1542,161.477 15.5,162.5C 14.5371,164.298 15.2038,165.632 17.5,166.5C 16.5672,167.985 16.9005,169.318 18.5,170.5C 18.0825,171.222 17.4158,171.722 16.5,172C 17.4498,174.59 19.1165,176.59 21.5,178C 20.8333,178.667 20.1667,179.333 19.5,180C 21.2382,182.713 23.5715,184.713 26.5,186C 27.6242,188.62 27.6242,191.12 26.5,193.5C 25.8333,193.5 25.5,193.833 25.5,194.5C 24.8333,194.5 24.5,194.167 24.5,193.5C 25.895,192.352 25.7284,191.352 24,190.5C 23.6012,190.728 23.4346,191.062 23.5,191.5C 22.5116,190.205 21.5116,188.872 20.5,187.5C 21.552,187.649 22.552,187.483 23.5,187C 22.3094,186.302 21.3094,185.469 20.5,184.5C 19.4886,182.628 18.6552,180.628 18,178.5C 17.5357,179.094 17.369,179.761 17.5,180.5C 16.0937,180.027 15.427,179.027 15.5,177.5C 16.0431,177.44 16.3764,177.107 16.5,176.5C 15.9017,175.205 15.4017,173.872 15,172.5C 14.6174,173.056 14.1174,173.389 13.5,173.5C 12.4937,173.062 12.4937,172.396 13.5,171.5C 13.7777,169.305 13.7777,167.139 13.5,165C 12.3066,163.905 10.9733,163.072 9.5,162.5C 8.89022,161.609 8.55688,160.609 8.5,159.5 Z"/></g>
<g><path style="opacity:0.004" fill="#e6e6e6" d="M 238.5,180.5 C 238.158,181.338 237.492,181.672 236.5,181.5C 235.662,181.842 235.328,182.508 235.5,183.5C 236.506,184.396 236.506,185.062 235.5,185.5C 235.167,185.5 234.833,185.5 234.5,185.5C 234.245,184.064 233.912,182.564 233.5,181C 235.023,179.212 236.69,179.045 238.5,180.5 Z"/></g>
<g><path style="opacity:0.004" fill="#000000" d="M 236.5,181.5 C 238.031,182.925 237.698,183.591 235.5,183.5C 235.328,182.508 235.662,181.842 236.5,181.5 Z"/></g>
<g><path style="opacity:0.004" fill="#292929" d="M 18.5,184.5 C 19.1667,184.5 19.8333,184.5 20.5,184.5C 20.5,185.5 20.5,186.5 20.5,187.5C 19.0937,187.027 18.427,186.027 18.5,184.5 Z"/></g>
<g><path style="opacity:0.004" fill="#e5e5e5" d="M 20.5,184.5 C 21.3094,185.469 22.3094,186.302 23.5,187C 22.552,187.483 21.552,187.649 20.5,187.5C 20.5,186.5 20.5,185.5 20.5,184.5 Z"/></g>
<g><path style="opacity:0.037" fill="#222222" d="M 51.5,219.5 C 51.1667,219.5 50.8333,219.5 50.5,219.5C 50.719,218.325 50.3857,217.325 49.5,216.5C 48.7025,216.957 48.3691,217.624 48.5,218.5C 48.5,218.833 48.5,219.167 48.5,219.5C 45.9351,216.402 42.9351,213.735 39.5,211.5C 40.4709,210.038 40.1376,208.705 38.5,207.5C 37.3157,206.312 37.3157,205.145 38.5,204C 36.867,203.52 35.5336,202.687 34.5,201.5C 33.4415,200.4 32.6082,199.066 32,197.5C 31.6667,197.833 31.3333,198.167 31,198.5C 30.6523,195.658 29.1523,193.991 26.5,193.5C 27.6242,191.12 27.6242,188.62 26.5,186C 23.5715,184.713 21.2382,182.713 19.5,180C 20.1667,179.333 20.8333,178.667 21.5,178C 19.1165,176.59 17.4498,174.59 16.5,172C 17.4158,171.722 18.0825,171.222 18.5,170.5C 20.0744,170.063 21.2411,169.063 22,167.5C 22.7504,168.126 23.5838,168.626 24.5,169C 22.8482,172.547 23.5149,175.547 26.5,178C 23.4571,180.946 24.1238,182.112 28.5,181.5C 28.3433,182.873 28.51,184.207 29,185.5C 29.3333,185.167 29.6667,184.833 30,184.5C 30.6377,185.609 31.1377,186.775 31.5,188C 30.4799,190.078 31.1466,191.745 33.5,193C 32.8333,193.333 32.1667,193.667 31.5,194C 33.2182,194.346 34.8849,194.846 36.5,195.5C 37.2421,197.108 37.4087,198.775 37,200.5C 38,201.5 39,202.5 40,203.5C 41,202.167 42,202.167 43,203.5C 44.746,205.843 44.5794,207.843 42.5,209.5C 43.868,210.594 45.0347,210.26 46,208.5C 46.3333,209.5 46.6667,210.5 47,211.5C 47.3333,211.167 47.6667,210.833 48,210.5C 49.6667,211.5 51,212.833 52,214.5C 52.9138,213.346 53.7471,213.513 54.5,215C 53.6006,216.652 52.6006,218.152 51.5,219.5 Z"/></g>
<g><path style="opacity:0.004" fill="#fefffe" d="M 24.5,193.5 C 23.6618,193.158 23.3284,192.492 23.5,191.5C 23.4346,191.062 23.6012,190.728 24,190.5C 25.7284,191.352 25.895,192.352 24.5,193.5 Z"/></g>
<g><path style="opacity:0.004" fill="#d2d2d2" d="M 233.5,188.5 C 232.489,190.372 231.655,192.372 231,194.5C 230.329,195.252 229.496,195.586 228.5,195.5C 227.375,194.652 227.375,193.652 228.5,192.5C 229.76,190.633 231.427,189.3 233.5,188.5 Z"/></g>
<g><path style="opacity:0.008" fill="#777777" d="M 226.5,192.5 C 227.167,192.5 227.833,192.5 228.5,192.5C 227.375,193.652 227.375,194.652 228.5,195.5C 229.429,197.322 228.762,198.655 226.5,199.5C 226.5,198.5 226.5,197.5 226.5,196.5C 224.801,196.66 223.134,196.494 221.5,196C 223.973,195.78 225.64,194.614 226.5,192.5 Z"/></g>
<g><path style="opacity:0.004" fill="#202020" d="M 29.5,200.5 C 28.5,199.5 27.5,198.5 26.5,197.5C 28.5014,196.59 29.8347,197.423 30.5,200C 30.2716,200.399 29.9382,200.565 29.5,200.5 Z"/></g>
<g><path style="opacity:0.004" fill="#e8e8e8" d="M 224.5,198.5 C 224.842,199.338 225.508,199.672 226.5,199.5C 226.167,200.5 225.5,201.167 224.5,201.5C 223.375,200.348 223.375,199.348 224.5,198.5 Z"/></g>
<g><path style="opacity:0.008" fill="#adadad" d="M 26.5,193.5 C 29.1523,193.991 30.6523,195.658 31,198.5C 31.3333,198.167 31.6667,197.833 32,197.5C 32.6082,199.066 33.4415,200.4 34.5,201.5C 34.0825,202.222 33.4158,202.722 32.5,203C 33.056,203.383 33.3893,203.883 33.5,204.5C 31.5,203.833 30.1667,202.5 29.5,200.5C 29.9382,200.565 30.2716,200.399 30.5,200C 29.8347,197.423 28.5014,196.59 26.5,197.5C 25.8902,196.609 25.5569,195.609 25.5,194.5C 25.5,193.833 25.8333,193.5 26.5,193.5 Z"/></g>
<g><path style="opacity:0.004" fill="#b9b9b9" d="M 224.5,201.5 C 222.709,202.228 222.042,203.228 222.5,204.5C 220.915,203.998 220.415,202.998 221,201.5C 221.986,200.829 223.153,200.829 224.5,201.5 Z"/></g>
<g><path style="opacity:0.008" fill="#696969" d="M 34.5,201.5 C 35.5336,202.687 36.867,203.52 38.5,204C 37.3157,205.145 37.3157,206.312 38.5,207.5C 37.375,208.348 37.375,209.348 38.5,210.5C 35.8139,208.865 34.1473,206.865 33.5,204.5C 33.3893,203.883 33.056,203.383 32.5,203C 33.4158,202.722 34.0825,202.222 34.5,201.5 Z"/></g>
<g><path style="opacity:0.012" fill="#5e5e5e" d="M 224.5,198.5 C 223.375,199.348 223.375,200.348 224.5,201.5C 223.153,200.829 221.986,200.829 221,201.5C 220.415,202.998 220.915,203.998 222.5,204.5C 222.158,205.338 221.492,205.672 220.5,205.5C 220.5,204.833 220.167,204.5 219.5,204.5C 219.423,203.25 218.756,202.417 217.5,202C 219.644,200.854 221.477,199.354 223,197.5C 223.765,197.57 224.265,197.903 224.5,198.5 Z"/></g>
<g><path style="opacity:0.004" fill="#c0c0c0" d="M 217.5,204.5 C 218.167,204.833 218.833,205.167 219.5,205.5C 219.833,205.5 220.167,205.5 220.5,205.5C 220.672,206.492 220.338,207.158 219.5,207.5C 217.952,207.179 217.285,206.179 217.5,204.5 Z"/></g>
<g><path style="opacity:0.004" fill="#fefffe" d="M 38.5,207.5 C 40.1376,208.705 40.4709,210.038 39.5,211.5C 38.8333,211.5 38.5,211.167 38.5,210.5C 37.375,209.348 37.375,208.348 38.5,207.5 Z"/></g>
<g><path style="opacity:0.004" fill="#fefffe" d="M 218.5,208.5 C 218.5,209.833 217.833,210.5 216.5,210.5C 216.062,210.565 215.728,210.399 215.5,210C 216.244,208.961 217.244,208.461 218.5,208.5 Z"/></g>
<g><path style="opacity:0.008" fill="#8b8b8b" d="M 217.5,204.5 C 217.285,206.179 217.952,207.179 219.5,207.5C 219.5,208.167 219.167,208.5 218.5,208.5C 217.244,208.461 216.244,208.961 215.5,210C 215.728,210.399 216.062,210.565 216.5,210.5C 216.082,211.222 215.416,211.722 214.5,212C 214.833,212.333 215.167,212.667 215.5,213C 214.142,213.934 212.808,214.768 211.5,215.5C 211.167,215.5 210.833,215.5 210.5,215.5C 210.5,214.833 210.167,214.5 209.5,214.5C 206.902,215.528 206.902,216.528 209.5,217.5C 208.71,218.401 207.71,219.068 206.5,219.5C 204.014,218.538 204.014,217.705 206.5,217C 205.833,216.667 205.167,216.333 204.5,216C 205.942,215.623 206.942,214.79 207.5,213.5C 211.597,210.488 214.93,207.488 217.5,204.5 Z"/></g>
<g><path style="opacity:0.004" fill="#000000" d="M 209.5,214.5 C 210.167,214.5 210.5,214.833 210.5,215.5C 210.833,215.5 211.167,215.5 211.5,215.5C 211.167,216.5 210.5,217.167 209.5,217.5C 206.902,216.528 206.902,215.528 209.5,214.5 Z"/></g>
<g><path style="opacity:0.004" fill="#dbdbdb" d="M 50.5,219.5 C 50.2144,221.933 49.5477,221.933 48.5,219.5C 49.8333,219.167 49.8333,218.833 48.5,218.5C 48.3691,217.624 48.7025,216.957 49.5,216.5C 50.3857,217.325 50.719,218.325 50.5,219.5 Z"/></g>
<g><path style="opacity:0.004" fill="#e4e4e4" d="M 204.5,220.5 C 204.19,222.144 203.19,223.144 201.5,223.5C 201.158,222.662 200.492,222.328 199.5,222.5C 200.934,220.622 202.601,219.955 204.5,220.5 Z"/></g>
<g><path style="opacity:0.012" fill="#464646" d="M 63.5,226.5 C 61.6017,227.734 59.935,227.401 58.5,225.5C 58.1583,224.662 57.4916,224.328 56.5,224.5C 56.1667,224.5 55.8333,224.5 55.5,224.5C 55.5,224.167 55.5,223.833 55.5,223.5C 58.0009,223.489 58.1676,222.822 56,221.5C 55.6174,222.056 55.1174,222.389 54.5,222.5C 52.6322,223.674 51.6322,223.007 51.5,220.5C 53.0174,220.489 54.1841,219.823 55,218.5C 55.6259,220.991 56.4593,220.991 57.5,218.5C 58.6667,220.167 59.8333,221.833 61,223.5C 62.904,222.898 64.7373,223.398 66.5,225C 65.7562,226.039 64.7562,226.539 63.5,226.5 Z"/></g>
<g><path style="opacity:0.004" fill="#fefffe" d="M 55.5,223.5 C 54.8333,223.5 54.5,223.167 54.5,222.5C 55.1174,222.389 55.6174,222.056 56,221.5C 58.1676,222.822 58.0009,223.489 55.5,223.5 Z"/></g>
<g><path style="opacity:0.004" fill="#a2a2a2" d="M 199.5,222.5 C 200.492,222.328 201.158,222.662 201.5,223.5C 200.778,224.551 199.778,225.218 198.5,225.5C 196.871,223.804 197.204,222.804 199.5,222.5 Z"/></g>
<g><path style="opacity:0.004" fill="#000000" d="M 55.5,224.5 C 54.8333,225.167 54.8333,225.167 55.5,224.5 Z"/></g>
<g><path style="opacity:0.008" fill="#a6a6a6" d="M 197.5,225.5 C 196.952,227.532 195.619,228.532 193.5,228.5C 193.423,227.25 192.756,226.417 191.5,226C 193.456,224.388 195.456,224.222 197.5,225.5 Z"/></g>
<g><path style="opacity:0.004" fill="#d6d6d6" d="M 56.5,224.5 C 57.4916,224.328 58.1583,224.662 58.5,225.5C 59.935,227.401 61.6017,227.734 63.5,226.5C 64.2905,227.401 65.2905,228.068 66.5,228.5C 66.5569,229.609 66.8902,230.609 67.5,231.5C 64.3015,229.986 60.9682,228.652 57.5,227.5C 56.6143,226.675 56.281,225.675 56.5,224.5 Z"/></g>
<g><path style="opacity:0.024" fill="#2e2e2e" d="M 207.5,213.5 C 206.942,214.79 205.942,215.623 204.5,216C 205.167,216.333 205.833,216.667 206.5,217C 204.014,217.705 204.014,218.538 206.5,219.5C 206.158,220.338 205.492,220.672 204.5,220.5C 202.601,219.955 200.934,220.622 199.5,222.5C 197.204,222.804 196.871,223.804 198.5,225.5C 198.167,225.5 197.833,225.5 197.5,225.5C 195.456,224.222 193.456,224.388 191.5,226C 192.756,226.417 193.423,227.25 193.5,228.5C 193.062,229.506 192.396,229.506 191.5,228.5C 190.883,228.389 190.383,228.056 190,227.5C 188.915,228.736 188.082,230.069 187.5,231.5C 187.5,232.167 187.167,232.5 186.5,232.5C 186.167,231.167 185.833,231.167 185.5,232.5C 184.833,232.5 184.167,232.5 183.5,232.5C 183.657,231.127 183.49,229.793 183,228.5C 181.915,230.657 180.749,230.824 179.5,229C 183.222,224.977 187.556,223.477 192.5,224.5C 192.519,222.94 192.852,221.44 193.5,220C 195.569,217.934 197.236,215.601 198.5,213C 201.517,213.049 204.517,212.215 207.5,210.5C 208.087,211.233 208.087,212.233 207.5,213.5 Z"/></g>
<g><path style="opacity:0.004" fill="#d4d4d4" d="M 191.5,228.5 C 191.539,229.756 191.039,230.756 190,231.5C 189.23,230.402 188.397,230.402 187.5,231.5C 188.082,230.069 188.915,228.736 190,227.5C 190.383,228.056 190.883,228.389 191.5,228.5 Z"/></g>
<g><path style="opacity:0.004" fill="#e6e6e6" d="M 70.5,231.5 C 71.5511,232.222 72.2178,233.222 72.5,234.5C 71.0048,234.011 69.6715,233.345 68.5,232.5C 68.3668,229.075 69.0335,228.742 70.5,231.5 Z"/></g>
<g><path style="opacity:0.008" fill="#646464" d="M 70.5,231.5 C 72.6547,231.372 74.6547,231.872 76.5,233C 76.2716,233.399 75.9382,233.565 75.5,233.5C 74.5084,233.328 73.8417,233.662 73.5,234.5C 73.1667,234.5 72.8333,234.5 72.5,234.5C 72.2178,233.222 71.5511,232.222 70.5,231.5 Z"/></g>
<g><path style="opacity:0.048" fill="#1e1e1e" d="M 129.5,244.5 C 129.5,244.833 129.5,245.167 129.5,245.5C 129.167,245.5 128.833,245.5 128.5,245.5C 126.797,243.859 124.63,242.859 122,242.5C 120.275,243.464 118.441,244.131 116.5,244.5C 114.167,244.5 111.833,244.5 109.5,244.5C 108.831,241.284 107.831,240.951 106.5,243.5C 106.585,242.005 105.919,241.005 104.5,240.5C 102.597,240.065 100.931,240.732 99.5,242.5C 98.791,241.596 97.791,241.263 96.5,241.5C 95.8333,241.5 95.5,241.167 95.5,240.5C 94.8333,240.5 94.5,240.833 94.5,241.5C 94.1667,241.5 93.8333,241.5 93.5,241.5C 92.625,239.194 91.2916,238.527 89.5,239.5C 89.0433,241.557 88.0433,241.557 86.5,239.5C 87.0249,238.272 88.3582,237.438 90.5,237C 88.567,236.749 86.7337,236.249 85,235.5C 84.2828,236.044 83.7828,236.711 83.5,237.5C 83.5,237.833 83.5,238.167 83.5,238.5C 82.2921,237.766 80.9587,237.433 79.5,237.5C 79.5,237.167 79.5,236.833 79.5,236.5C 79.8333,236.5 80.1667,236.5 80.5,236.5C 81.9353,232.806 81.102,232.473 78,235.5C 77.0053,234.934 76.172,234.267 75.5,233.5C 75.9382,233.565 76.2716,233.399 76.5,233C 74.6547,231.872 72.6547,231.372 70.5,231.5C 69.0335,228.742 68.3668,229.075 68.5,232.5C 67.8333,232.5 67.5,232.167 67.5,231.5C 66.8902,230.609 66.5569,229.609 66.5,228.5C 67.265,227.34 68.265,226.34 69.5,225.5C 72.5838,225.861 75.0838,227.194 77,229.5C 81.1826,227.611 84.6826,228.611 87.5,232.5C 90.6012,231.351 93.6012,231.684 96.5,233.5C 98.3497,232.758 99.0164,231.758 98.5,230.5C 99.4776,230.977 100.311,231.643 101,232.5C 103.634,231.216 105.8,231.882 107.5,234.5C 108.736,233.754 110.07,233.421 111.5,233.5C 111.355,236.052 110.855,238.385 110,240.5C 112.093,239.754 114.093,239.421 116,239.5C 116.333,240.167 116.667,240.833 117,241.5C 118.252,239.999 119.252,238.332 120,236.5C 120.741,237.641 121.575,237.641 122.5,236.5C 124.115,237.154 125.782,237.654 127.5,238C 126.692,238.308 126.025,238.808 125.5,239.5C 127.862,240.271 130.196,241.105 132.5,242C 131.058,242.377 130.058,243.21 129.5,244.5 Z"/></g>
<g><path style="opacity:0.004" fill="#afafaf" d="M 183.5,233.5 C 182.71,234.401 181.71,235.068 180.5,235.5C 180.5,234.833 180.5,234.167 180.5,233.5C 180.5,233.167 180.5,232.833 180.5,232.5C 181.117,232.389 181.617,232.056 182,231.5C 182.278,232.416 182.778,233.082 183.5,233.5 Z"/></g>
<g><path style="opacity:0.004" fill="#fefffe" d="M 185.5,232.5 C 185.833,232.5 186.167,232.5 186.5,232.5C 186.315,233.17 185.981,233.17 185.5,232.5 Z"/></g>
<g><path style="opacity:0.004" fill="#c9c9c9" d="M 75.5,233.5 C 76.172,234.267 77.0053,234.934 78,235.5C 81.102,232.473 81.9353,232.806 80.5,236.5C 80.1667,235.167 79.8333,235.167 79.5,236.5C 79.5,236.833 79.5,237.167 79.5,237.5C 77.4261,236.486 75.4261,235.486 73.5,234.5C 73.8417,233.662 74.5084,233.328 75.5,233.5 Z"/></g>
<g><path style="opacity:0.037" fill="#232323" d="M 180.5,232.5 C 180.5,232.833 180.5,233.167 180.5,233.5C 179.833,233.833 179.167,234.167 178.5,234.5C 177.053,233.115 176.053,233.448 175.5,235.5C 175.5,235.833 175.5,236.167 175.5,236.5C 174.391,236.557 173.391,236.89 172.5,237.5C 172.209,236.351 171.376,235.684 170,235.5C 167.725,235.278 166.559,236.278 166.5,238.5C 164.686,238.772 162.686,238.939 160.5,239C 161.056,239.383 161.389,239.883 161.5,240.5C 160.833,240.5 160.5,240.833 160.5,241.5C 159.202,240.884 158.202,240.884 157.5,241.5C 157.167,241.5 156.833,241.5 156.5,241.5C 155.105,240.185 154.105,240.519 153.5,242.5C 153.5,243.167 153.167,243.5 152.5,243.5C 152.5,242.833 152.167,242.5 151.5,242.5C 151.649,241.448 151.483,240.448 151,239.5C 148.8,240.651 147.3,242.318 146.5,244.5C 145.604,245.506 144.938,245.506 144.5,244.5C 145.895,243.352 145.728,242.352 144,241.5C 142.378,242.099 140.878,242.766 139.5,243.5C 137.833,243.5 136.167,243.5 134.5,243.5C 133.234,241.704 133.568,241.37 135.5,242.5C 136.892,239.709 138.392,237.709 140,236.5C 142.427,237.781 144.927,238.781 147.5,239.5C 147.351,238.448 147.517,237.448 148,236.5C 149.667,237.5 151.333,238.5 153,239.5C 156.184,235.158 160.35,232.158 165.5,230.5C 166.145,229.268 166.311,227.935 166,226.5C 166.979,228.32 168.479,229.487 170.5,230C 169.529,231.204 168.529,231.704 167.5,231.5C 167.808,232.308 168.308,232.975 169,233.5C 170.791,231.487 172.125,231.487 173,233.5C 175.274,229.417 177.774,229.084 180.5,232.5 Z"/></g>
<g><path style="opacity:0.004" fill="#fefffe" d="M 180.5,233.5 C 180.5,234.167 180.5,234.833 180.5,235.5C 179.833,235.833 179.167,236.167 178.5,236.5C 178.5,235.833 178.5,235.167 178.5,234.5C 179.167,234.167 179.833,233.833 180.5,233.5 Z"/></g>
<g><path style="opacity:0.004" fill="#9e9e9e" d="M 178.5,234.5 C 178.5,235.167 178.5,235.833 178.5,236.5C 177.348,237.625 176.348,237.625 175.5,236.5C 176.833,236.167 176.833,235.833 175.5,235.5C 176.053,233.448 177.053,233.115 178.5,234.5 Z"/></g>
<g><path style="opacity:0.008" fill="#777777" d="M 172.5,237.5 C 171.5,238.167 170.5,238.833 169.5,239.5C 168.609,238.89 167.609,238.557 166.5,238.5C 166.559,236.278 167.725,235.278 170,235.5C 171.376,235.684 172.209,236.351 172.5,237.5 Z"/></g>
<g><path style="opacity:0.004" fill="#9f9f9f" d="M 86.5,239.5 C 85.8333,239.167 85.1667,238.833 84.5,238.5C 84.5,237.833 84.1667,237.5 83.5,237.5C 83.7828,236.711 84.2828,236.044 85,235.5C 86.7337,236.249 88.567,236.749 90.5,237C 88.3582,237.438 87.0249,238.272 86.5,239.5 Z"/></g>
<g><path style="opacity:0.004" fill="#000000" d="M 83.5,238.5 C 83.8333,238.5 84.1667,238.5 84.5,238.5C 84.3147,239.17 83.9813,239.17 83.5,238.5 Z"/></g>
<g><path style="opacity:0.012" fill="#7c7c7c" d="M 95.5,240.5 C 95.0825,239.778 94.4158,239.278 93.5,239C 94.635,238.251 95.635,238.417 96.5,239.5C 96.3764,240.107 96.0431,240.44 95.5,240.5 Z"/></g>
<g><path style="opacity:0.004" fill="#e7e7e7" d="M 89.5,239.5 C 91.2916,238.527 92.625,239.194 93.5,241.5C 91.9382,241.267 90.6049,240.6 89.5,239.5 Z"/></g>
<g><path style="opacity:0.004" fill="#dedede" d="M 166.5,238.5 C 167.609,238.557 168.609,238.89 169.5,239.5C 167.204,240.21 164.537,240.877 161.5,241.5C 161.5,241.167 161.5,240.833 161.5,240.5C 161.389,239.883 161.056,239.383 160.5,239C 162.686,238.939 164.686,238.772 166.5,238.5 Z"/></g>
<g><path style="opacity:0.004" fill="#fefffe" d="M 95.5,240.5 C 95.5,241.167 95.8333,241.5 96.5,241.5C 95.8333,242.833 95.1667,242.833 94.5,241.5C 94.5,240.833 94.8333,240.5 95.5,240.5 Z"/></g>
<g><path style="opacity:0.008" fill="#9f9f9f" d="M 151.5,242.5 C 151.5,242.833 151.5,243.167 151.5,243.5C 150.883,243.389 150.383,243.056 150,242.5C 149.29,243.973 148.124,244.64 146.5,244.5C 147.3,242.318 148.8,240.651 151,239.5C 151.483,240.448 151.649,241.448 151.5,242.5 Z"/></g>
<g><path style="opacity:0.004" fill="#d6d6d6" d="M 156.5,241.5 C 156.196,243.796 155.196,244.129 153.5,242.5C 154.105,240.519 155.105,240.185 156.5,241.5 Z"/></g>
<g><path style="opacity:0.004" fill="#cfcfcf" d="M 160.5,241.5 C 160.833,241.5 161.167,241.5 161.5,241.5C 160.167,242.833 158.833,242.833 157.5,241.5C 158.202,240.884 159.202,240.884 160.5,241.5 Z"/></g>
<g><path style="opacity:0.008" fill="#9e9e9e" d="M 106.5,243.5 C 105.833,243.5 105.167,243.5 104.5,243.5C 104.167,242.167 103.833,242.167 103.5,243.5C 101.901,243.768 100.568,243.434 99.5,242.5C 100.931,240.732 102.597,240.065 104.5,240.5C 105.919,241.005 106.585,242.005 106.5,243.5 Z"/></g>
<g><path style="opacity:0.008" fill="#a2a2a2" d="M 144.5,244.5 C 143.833,244.5 143.167,244.5 142.5,244.5C 141.791,243.596 140.791,243.263 139.5,243.5C 140.878,242.766 142.378,242.099 144,241.5C 145.728,242.352 145.895,243.352 144.5,244.5 Z"/></g>
<g><path style="opacity:0.008" fill="#a5a5a5" d="M 128.5,245.5 C 127.178,245.67 126.011,245.337 125,244.5C 124.667,245.167 124.333,245.833 124,246.5C 122,245.167 120,245.167 118,246.5C 117.283,245.956 116.783,245.289 116.5,244.5C 118.441,244.131 120.275,243.464 122,242.5C 124.63,242.859 126.797,243.859 128.5,245.5 Z"/></g>
<g><path style="opacity:0.004" fill="#000000" d="M 103.5,243.5 C 103.833,243.5 104.167,243.5 104.5,243.5C 104.315,244.17 103.981,244.17 103.5,243.5 Z"/></g>
<g><path style="opacity:0.008" fill="#c8c8c8" d="M 109.5,244.5 C 109.565,244.938 109.399,245.272 109,245.5C 108.005,244.934 107.172,244.267 106.5,243.5C 107.831,240.951 108.831,241.284 109.5,244.5 Z"/></g>
<g><path style="opacity:0.004" fill="#242424" d="M 139.5,243.5 C 140.791,243.263 141.791,243.596 142.5,244.5C 141.5,245.833 140.5,245.833 139.5,244.5C 139.5,244.167 139.5,243.833 139.5,243.5 Z"/></g>
<g><path style="opacity:0.004" fill="#000000" d="M 151.5,243.5 C 151.833,243.5 152.167,243.5 152.5,243.5C 152.315,244.17 151.981,244.17 151.5,243.5 Z"/></g>
<g><path style="opacity:0.004" fill="#cdcdcd" d="M 134.5,243.5 C 136.167,243.5 137.833,243.5 139.5,243.5C 139.5,243.833 139.5,244.167 139.5,244.5C 137.648,245.089 135.815,245.756 134,246.5C 132.397,246.129 130.897,245.795 129.5,245.5C 129.5,245.167 129.5,244.833 129.5,244.5C 131.415,244.784 133.081,244.451 134.5,243.5 Z"/></g>
</svg>
