<?xml version="1.0" encoding="UTF-8"?>
<!DOCTYPE svg PUBLIC "-//W3C//DTD SVG 1.1//EN" "http://www.w3.org/Graphics/SVG/1.1/DTD/svg11.dtd">
<svg xmlns="http://www.w3.org/2000/svg" version="1.1" width="60px" height="60px" style="shape-rendering:geometricPrecision; text-rendering:geometricPrecision; image-rendering:optimizeQuality; fill-rule:evenodd; clip-rule:evenodd" xmlns:xlink="http://www.w3.org/1999/xlink">
<g><path style="opacity:0.899" fill="#323232" d="M 16.5,4.5 C 29.8751,2.71006 35.7084,8.37672 34,21.5C 30.8796,28.974 25.3796,31.474 17.5,29C 10.026,25.8796 7.52603,20.3796 10,12.5C 11.3046,9.03864 13.4713,6.37197 16.5,4.5 Z M 21.5,9.5 C 31.7635,14.2393 31.9302,19.2393 22,24.5C 12.2659,19.6554 12.0992,14.6554 21.5,9.5 Z"/></g>
<g><path style="opacity:0.878" fill="#323232" d="M 37.5,4.5 C 47.768,5.6832 51.6013,11.3499 49,21.5C 47.0888,27.7808 43.0888,30.1141 37,28.5C 36.3333,27.5 36.3333,26.5 37,25.5C 46.3576,20.111 46.5243,14.7776 37.5,9.5C 36.3336,7.83268 36.3336,6.16602 37.5,4.5 Z"/></g>
<g><path style="opacity:0.946" fill="#323232" d="M -0.5,54.5 C -0.5,50.5 -0.5,46.5 -0.5,42.5C 0.920984,39.2424 3.25432,36.7424 6.5,35C 16.5,34.3333 26.5,34.3333 36.5,35C 39.9371,36.1049 42.4371,38.2716 44,41.5C 44.499,45.8206 44.6657,50.1539 44.5,54.5C 42.8333,54.5 41.1667,54.5 39.5,54.5C 40.4173,41.9281 34.584,36.9281 22,39.5C 9.41602,36.9281 3.58269,41.9281 4.5,54.5C 2.83333,54.5 1.16667,54.5 -0.5,54.5 Z"/></g>
<g><path style="opacity:0.89" fill="#323232" d="M 59.5,41.5 C 59.5,45.8333 59.5,50.1667 59.5,54.5C 57.8333,54.5 56.1667,54.5 54.5,54.5C 55.7877,47.6552 53.4544,42.6552 47.5,39.5C 45.7702,35.3938 47.1035,33.8938 51.5,35C 54.9614,36.3046 57.628,38.4713 59.5,41.5 Z"/></g>
</svg>
