<?xml version="1.0" standalone="no"?>
<!DOCTYPE svg PUBLIC "-//W3C//DTD SVG 20010904//EN"
 "http://www.w3.org/TR/2001/REC-SVG-20010904/DTD/svg10.dtd">
<svg version="1.0" xmlns="http://www.w3.org/2000/svg"
 width="512.000000pt" height="512.000000pt" viewBox="0 0 512.000000 512.000000"
 preserveAspectRatio="xMidYMid meet">

<g transform="translate(0.000000,512.000000) scale(0.100000,-0.100000)"
fill="#000000" stroke="none">
<path d="M830 5104 c-42 -18 -86 -58 -108 -99 -15 -27 -17 -109 -20 -871 l-3
-842 -92 -4 c-112 -5 -179 -32 -235 -92 -81 -88 -77 -39 -77 -946 0 -801 0
-805 21 -851 54 -116 140 -169 291 -177 l92 -5 3 -536 c3 -588 1 -562 65 -623
65 -62 -61 -58 1793 -58 1854 0 1728 -4 1793 58 64 61 62 35 65 623 l3 536 92
5 c151 8 237 61 291 177 21 46 21 50 21 851 0 907 4 858 -77 946 -56 60 -123
87 -235 92 l-93 4 -1 302 c-1 165 -4 312 -8 326 -8 30 -994 1160 -1033 1184
-24 15 -138 16 -1270 16 -1088 -1 -1247 -3 -1278 -16z m2400 -714 l0 -530 29
-32 29 -33 466 -3 466 -3 0 -249 0 -250 -1660 0 -1660 0 0 815 0 815 1165 0
1165 0 0 -530z m-355 -1384 c155 -50 283 -162 356 -311 52 -107 69 -178 76
-311 24 -469 -241 -774 -673 -776 -195 -1 -335 53 -460 178 -83 82 -142 190
-174 319 -26 101 -28 286 -6 394 58 271 246 468 501 525 106 24 277 16 380
-18z m1519 19 c47 -8 103 -22 125 -31 l38 -15 -30 -122 c-16 -67 -31 -123 -31
-124 -1 -1 -31 7 -66 18 -36 11 -104 23 -152 26 -244 16 -417 -97 -474 -312
-18 -64 -18 -226 0 -290 39 -147 144 -252 290 -291 92 -25 257 -15 382 21 19
6 22 -1 38 -92 9 -54 20 -110 22 -124 5 -24 2 -27 -48 -42 -94 -29 -197 -40
-343 -34 -162 6 -225 20 -344 79 -164 80 -273 222 -322 417 -30 121 -24 329
14 446 99 303 362 481 718 484 53 1 135 -6 183 -14z m-3100 -20 c258 -49 428
-189 502 -412 35 -106 43 -281 20 -405 -59 -312 -245 -486 -593 -555 -96 -18
-371 -23 -535 -9 l-88 8 0 683 0 683 53 7 c183 26 507 26 641 0z m2926 -2265
l0 -480 -1660 0 -1660 0 0 480 0 480 1660 0 1660 0 0 -480z"/>
<path d="M2549 2775 c-60 -19 -143 -94 -175 -157 -88 -174 -84 -452 9 -606 61
-103 148 -154 262 -154 164 -1 280 118 320 326 47 246 -31 486 -185 570 -65
35 -160 44 -231 21z"/>
<path d="M968 2783 l-48 -4 0 -460 0 -459 96 0 c188 0 321 58 397 173 45 68
67 134 77 236 30 287 -101 478 -351 511 -74 9 -84 10 -171 3z"/>
</g>
</svg>
