<?xml version="1.0" standalone="no"?>
<!DOCTYPE svg PUBLIC "-//W3C//DTD SVG 20010904//EN"
 "http://www.w3.org/TR/2001/REC-SVG-20010904/DTD/svg10.dtd">
<svg version="1.0" xmlns="http://www.w3.org/2000/svg"
 width="512.000000pt" height="512.000000pt" viewBox="0 0 512.000000 512.000000"
 preserveAspectRatio="xMidYMid meet">

<g transform="translate(0.000000,512.000000) scale(0.100000,-0.100000)"
fill="#000000" stroke="none">
<path d="M830 5104 c-42 -18 -86 -58 -108 -99 -15 -27 -17 -109 -20 -871 l-3
-842 -92 -4 c-112 -5 -179 -32 -235 -92 -81 -88 -77 -39 -77 -946 0 -801 0
-805 21 -851 54 -116 140 -169 291 -177 l92 -5 3 -536 c3 -588 1 -562 65 -623
65 -62 -61 -58 1793 -58 1854 0 1728 -4 1793 58 64 61 62 35 65 623 l3 536 92
5 c151 8 237 61 291 177 21 46 21 50 21 851 0 907 4 858 -77 946 -56 60 -123
87 -235 92 l-93 4 -1 302 c-1 165 -4 312 -8 326 -8 30 -994 1160 -1033 1184
-24 15 -138 16 -1270 16 -1088 -1 -1247 -3 -1278 -16z m2400 -714 l0 -530 29
-32 29 -33 466 -3 466 -3 0 -249 0 -250 -1660 0 -1660 0 0 815 0 815 1165 0
1165 0 0 -530z m-671 -1366 c296 -56 446 -302 367 -601 -20 -76 -64 -149 -121
-201 -112 -103 -229 -142 -447 -149 l-148 -5 0 -264 0 -264 -170 0 -170 0 2
737 3 738 55 8 c186 28 488 28 629 1z m1655 2 c38 -9 88 -23 112 -32 l42 -16
-34 -131 c-19 -71 -36 -132 -39 -135 -2 -2 -22 3 -43 11 -109 44 -310 59 -434
33 -282 -60 -416 -300 -346 -621 33 -156 162 -285 322 -324 56 -14 216 -15
261 -3 l30 8 3 157 3 157 -116 0 -115 0 0 130 0 130 280 0 280 0 0 -390 0
-390 -27 -11 c-64 -25 -247 -60 -370 -71 -215 -19 -393 8 -553 84 -70 34 -100
56 -170 127 -91 92 -144 181 -176 298 -25 91 -30 302 -10 403 66 322 290 527
650 596 90 17 354 11 450 -10z m-2626 -543 c-4 -494 -6 -565 -22 -618 -55
-192 -164 -298 -341 -335 -110 -24 -392 -10 -410 20 -6 9 26 253 34 262 4 4
22 3 41 -2 19 -6 71 -11 116 -11 139 -2 198 39 229 157 12 48 15 144 15 564 0
279 3 510 7 513 3 4 80 7 170 7 l164 0 -3 -557z m2632 -1743 l0 -480 -1660 0
-1660 0 0 480 0 480 1660 0 1660 0 0 -480z"/>
<path d="M2233 2783 l-23 -4 0 -225 0 -224 94 0 c122 0 187 20 243 76 46 46
63 92 63 169 -1 98 -56 171 -152 200 -48 14 -171 18 -225 8z"/>
</g>
</svg>
