<?xml version="1.0" standalone="no"?>
<!DOCTYPE svg PUBLIC "-//W3C//DTD SVG 20010904//EN"
 "http://www.w3.org/TR/2001/REC-SVG-20010904/DTD/svg10.dtd">
<svg version="1.0" xmlns="http://www.w3.org/2000/svg"
 width="512.000000pt" height="512.000000pt" viewBox="0 0 512.000000 512.000000"
 preserveAspectRatio="xMidYMid meet">

<g transform="translate(0.000000,512.000000) scale(0.100000,-0.100000)"
fill="#000000" stroke="none">
<path d="M830 5104 c-42 -18 -86 -58 -108 -99 -15 -27 -17 -109 -20 -871 l-3
-842 -92 -4 c-112 -5 -179 -32 -235 -92 -81 -88 -77 -39 -77 -946 0 -801 0
-805 21 -851 54 -116 140 -169 291 -177 l92 -5 3 -536 c3 -588 1 -562 65 -623
65 -62 -61 -58 1793 -58 1854 0 1728 -4 1793 58 64 61 62 35 65 623 l3 536 92
5 c151 8 237 61 291 177 21 46 21 50 21 851 0 907 4 858 -77 946 -56 60 -123
87 -235 92 l-93 4 -1 302 c-1 165 -4 312 -8 326 -8 30 -994 1160 -1033 1184
-24 15 -138 16 -1270 16 -1088 -1 -1247 -3 -1278 -16z m2400 -714 l0 -530 29
-32 29 -33 466 -3 466 -3 0 -249 0 -250 -1660 0 -1660 0 0 815 0 815 1165 0
1165 0 0 -530z m-54 -1425 c140 -32 231 -95 288 -198 107 -192 45 -462 -133
-576 -100 -64 -212 -92 -378 -92 l-113 0 0 -245 0 -244 -150 0 -150 0 0 674 0
674 43 7 c150 26 482 26 593 0z m-1815 -220 c38 -126 89 -318 115 -425 25
-107 52 -215 58 -240 l13 -45 11 40 c5 22 31 119 56 215 25 96 83 291 128 433
l81 257 204 0 203 0 0 -32 c0 -18 16 -318 35 -667 19 -348 35 -642 35 -652 0
-18 -10 -19 -150 -19 -136 0 -150 2 -150 18 0 9 -7 179 -15 377 -8 198 -15
434 -15 525 0 98 -4 159 -9 150 -5 -8 -25 -76 -45 -150 -20 -74 -89 -306 -154
-515 l-118 -380 -117 -3 c-114 -3 -117 -2 -127 20 -27 64 -208 750 -241 916
-12 62 -24 110 -27 108 -2 -3 -12 -193 -22 -423 -10 -230 -22 -469 -25 -530
l-7 -113 -137 0 c-76 0 -140 2 -142 4 -2 3 15 299 38 658 23 359 42 665 42
681 l1 27 207 -2 207 -3 67 -230z m2889 191 c128 -31 219 -96 265 -191 35 -70
36 -170 4 -244 -25 -59 -94 -127 -163 -161 l-49 -23 55 -21 c116 -45 185 -114
214 -214 34 -114 -11 -268 -101 -351 -136 -126 -409 -173 -647 -112 -60 15
-146 50 -165 65 -3 3 55 217 60 222 2 2 31 -7 64 -20 126 -49 253 -63 347 -36
127 35 176 172 96 264 -48 54 -118 79 -242 84 l-108 5 0 107 0 107 108 5 c165
8 242 55 242 148 0 72 -57 123 -153 136 -55 8 -189 -18 -262 -51 l-53 -23 -30
106 -30 107 21 17 c82 66 384 108 527 74z m-30 -2196 l0 -480 -1660 0 -1660 0
0 480 0 480 1660 0 1660 0 0 -480z"/>
<path d="M2853 2743 c-10 -3 -13 -54 -13 -203 l0 -199 46 -7 c115 -17 244 27
292 98 20 32 27 56 30 108 6 104 -34 167 -127 198 -33 12 -204 15 -228 5z"/>
</g>
</svg>
