<?xml version="1.0" standalone="no"?>
<!DOCTYPE svg PUBLIC "-//W3C//DTD SVG 20010904//EN"
 "http://www.w3.org/TR/2001/REC-SVG-20010904/DTD/svg10.dtd">
<svg version="1.0" xmlns="http://www.w3.org/2000/svg"
 width="512.000000pt" height="512.000000pt" viewBox="0 0 512.000000 512.000000"
 preserveAspectRatio="xMidYMid meet">

<g transform="translate(0.000000,512.000000) scale(0.100000,-0.100000)"
fill="#000000" stroke="none">
<path d="M830 5104 c-42 -18 -86 -58 -108 -99 -15 -27 -17 -109 -20 -871 l-3
-842 -92 -4 c-112 -5 -179 -32 -235 -92 -81 -88 -77 -39 -77 -946 0 -801 0
-805 21 -851 54 -116 140 -169 291 -177 l92 -5 3 -536 c3 -588 1 -562 65 -623
65 -62 -61 -58 1793 -58 1854 0 1728 -4 1793 58 64 61 62 35 65 623 l3 536 92
5 c151 8 237 61 291 177 21 46 21 50 21 851 0 907 4 858 -77 946 -56 60 -123
87 -235 92 l-93 4 -1 302 c-1 165 -4 312 -8 326 -8 30 -994 1160 -1033 1184
-24 15 -138 16 -1270 16 -1088 -1 -1247 -3 -1278 -16z m2400 -714 l0 -530 29
-32 29 -33 466 -3 466 -3 0 -249 0 -250 -1660 0 -1660 0 0 815 0 815 1165 0
1165 0 0 -530z m-303 -1431 c247 -35 397 -195 396 -420 -1 -145 -39 -244 -126
-332 -99 -98 -245 -147 -444 -149 l-123 -1 0 -249 0 -248 -160 0 -160 0 2 692
3 693 50 8 c68 11 345 24 425 20 36 -2 98 -8 137 -14z m-1897 -11 c34 -79 191
-657 231 -850 12 -60 24 -106 26 -104 2 2 24 80 48 172 58 223 100 368 177
604 l64 195 206 3 206 2 6 -72 c4 -40 20 -325 36 -633 16 -308 32 -593 36
-632 l6 -73 -155 0 -156 0 -5 53 c-8 77 -26 621 -26 773 0 72 -3 166 -7 210
l-6 78 -37 -139 c-33 -125 -115 -394 -246 -813 l-45 -143 -126 3 -126 3 -69
250 c-80 292 -170 649 -188 753 -7 39 -16 70 -18 67 -5 -5 -51 -943 -52 -1052
l0 -43 -150 0 -150 0 6 58 c2 31 23 343 45 692 21 349 41 641 44 648 3 9 55
12 210 12 204 0 206 0 215 -22z m3310 -428 l0 -400 85 0 85 0 0 -120 0 -120
-85 0 -85 0 0 -160 0 -160 -150 0 -150 0 0 160 0 160 -300 0 -300 0 0 103 0
104 251 404 c138 222 256 410 261 417 8 9 60 12 199 12 l189 0 0 -400z m-120
-1780 l0 -480 -1660 0 -1660 0 0 480 0 480 1660 0 1660 0 0 -480z"/>
<path d="M2700 2730 l-65 -5 0 -210 0 -210 78 -3 c182 -7 297 80 297 223 0 85
-51 162 -125 189 -37 14 -119 21 -185 16z"/>
<path d="M3994 2568 c-27 -56 -91 -172 -142 -257 -51 -85 -97 -163 -103 -173
-9 -17 -2 -18 139 -18 l149 0 6 272 c3 150 4 274 3 275 -1 1 -24 -43 -52 -99z"/>
</g>
</svg>
