<?xml version="1.0" standalone="no"?>
<!DOCTYPE svg PUBLIC "-//W3C//DTD SVG 20010904//EN"
 "http://www.w3.org/TR/2001/REC-SVG-20010904/DTD/svg10.dtd">
<svg version="1.0" xmlns="http://www.w3.org/2000/svg"
 width="512.000000pt" height="512.000000pt" viewBox="0 0 512.000000 512.000000"
 preserveAspectRatio="xMidYMid meet">

<g transform="translate(0.000000,512.000000) scale(0.100000,-0.100000)"
fill="#000000" stroke="none">
<path d="M830 5104 c-42 -18 -86 -58 -108 -99 -15 -27 -17 -109 -20 -871 l-3
-842 -92 -4 c-112 -5 -179 -32 -235 -92 -81 -88 -77 -39 -77 -946 0 -801 0
-805 21 -851 54 -116 140 -169 291 -177 l92 -5 3 -536 c3 -588 1 -562 65 -623
65 -62 -61 -58 1793 -58 1854 0 1728 -4 1793 58 64 61 62 35 65 623 l3 536 92
5 c151 8 237 61 291 177 21 46 21 50 21 851 0 907 4 858 -77 946 -56 60 -123
87 -235 92 l-93 4 -1 302 c-1 165 -4 312 -8 326 -8 30 -994 1160 -1033 1184
-24 15 -138 16 -1270 16 -1088 -1 -1247 -3 -1278 -16z m2400 -714 l0 -530 29
-32 29 -33 466 -3 466 -3 0 -249 0 -250 -1660 0 -1660 0 0 815 0 815 1165 0
1165 0 0 -530z m-1800 -1440 c52 -11 123 -33 157 -50 167 -82 256 -258 233
-458 -15 -132 -55 -216 -138 -294 -107 -100 -252 -148 -459 -151 l-133 -2 -2
-265 -3 -265 -167 -3 -168 -2 0 740 c0 407 3 740 8 741 4 0 52 7 107 14 165
21 452 18 565 -5z m1310 5 c125 -19 189 -38 281 -87 146 -75 253 -199 303
-350 67 -201 54 -458 -33 -643 -105 -223 -269 -340 -561 -402 -69 -15 -133
-18 -340 -18 -140 0 -276 4 -302 8 l-48 8 0 735 c0 404 1 734 3 735 1 0 54 6
117 13 162 19 463 19 580 1z m1768 -132 l-3 -138 -287 -3 -288 -2 0 -170 0
-170 270 0 270 0 0 -135 0 -135 -267 -2 -268 -3 -3 -302 -2 -303 -170 0 -170
0 0 750 0 750 460 0 461 0 -3 -137z m-288 -2083 l0 -480 -1660 0 -1660 0 0
480 0 480 1660 0 1660 0 0 -480z"/>
<path d="M1145 2711 l-50 -6 -3 -222 -2 -222 45 -7 c112 -16 242 22 299 87 92
108 66 282 -53 343 -28 15 -141 37 -171 34 -8 0 -37 -4 -65 -7z"/>
<path d="M2403 2703 l-23 -4 0 -489 0 -489 36 -7 c47 -9 194 3 259 20 163 43
274 162 316 336 20 87 15 272 -10 350 -61 194 -216 292 -457 289 -55 -1 -109
-4 -121 -6z"/>
</g>
</svg>
