<?xml version="1.0" standalone="no"?>
<!DOCTYPE svg PUBLIC "-//W3C//DTD SVG 20010904//EN"
 "http://www.w3.org/TR/2001/REC-SVG-20010904/DTD/svg10.dtd">
<svg version="1.0" xmlns="http://www.w3.org/2000/svg"
 width="512.000000pt" height="512.000000pt" viewBox="0 0 512.000000 512.000000"
 preserveAspectRatio="xMidYMid meet">

<g transform="translate(0.000000,512.000000) scale(0.100000,-0.100000)"
fill="#000000" stroke="none">
<path d="M830 5104 c-42 -18 -86 -58 -108 -99 -15 -27 -17 -109 -20 -871 l-3
-842 -92 -4 c-112 -5 -179 -32 -235 -92 -81 -88 -77 -39 -77 -946 0 -801 0
-805 21 -851 54 -116 140 -169 291 -177 l92 -5 3 -536 c3 -588 1 -562 65 -623
65 -62 -61 -58 1793 -58 1854 0 1728 -4 1793 58 64 61 62 35 65 623 l3 536 92
5 c151 8 237 61 291 177 21 46 21 50 21 851 0 907 4 858 -77 946 -56 60 -123
87 -235 92 l-93 4 -1 302 c-1 165 -4 312 -8 326 -8 30 -994 1160 -1033 1184
-24 15 -138 16 -1270 16 -1088 -1 -1247 -3 -1278 -16z m2400 -714 l0 -530 29
-32 29 -33 466 -3 466 -3 0 -249 0 -250 -1660 0 -1660 0 0 815 0 815 1165 0
1165 0 0 -530z m-1916 -1416 c272 -54 409 -264 351 -537 -18 -88 -56 -156
-120 -216 -104 -98 -235 -142 -437 -144 l-128 -2 0 -252 0 -253 -155 0 -155 0
0 699 0 699 58 7 c184 25 460 25 586 -1z m3013 1 c40 -8 88 -22 107 -30 l34
-15 -32 -119 c-17 -66 -34 -122 -37 -125 -2 -3 -33 3 -67 14 -33 11 -105 24
-158 29 -322 33 -533 -107 -563 -373 -19 -170 24 -320 119 -415 93 -93 187
-125 349 -119 58 2 112 7 119 11 9 6 12 48 12 153 l0 144 -110 0 -110 0 0 125
0 125 260 0 260 0 0 -373 0 -374 -107 -26 c-60 -14 -146 -31 -192 -38 -118
-17 -344 -7 -444 20 -316 83 -497 328 -497 672 0 385 228 649 623 725 92 17
335 11 434 -11z m-1920 -252 c186 -330 258 -466 318 -608 53 -123 71 -151 61
-93 -12 66 -25 445 -26 711 l0 258 148 -3 147 -3 0 -705 0 -705 -167 -3 -166
-2 -160 287 c-172 310 -284 525 -349 668 l-41 90 6 -523 5 -523 -149 3 -149 3
-3 695 c-1 382 0 701 3 708 3 9 50 12 188 12 l183 0 151 -267z m1813 -1983 l0
-480 -1660 0 -1660 0 0 480 0 480 1660 0 1660 0 0 -480z"/>
<path d="M1045 2750 l-60 -5 0 -210 0 -210 105 0 c92 0 111 4 155 26 72 37
108 92 113 173 5 82 -10 126 -58 170 -55 49 -134 67 -255 56z"/>
</g>
</svg>
