<?xml version="1.0" standalone="no"?>
<!DOCTYPE svg PUBLIC "-//W3C//DTD SVG 20010904//EN"
 "http://www.w3.org/TR/2001/REC-SVG-20010904/DTD/svg10.dtd">
<svg version="1.0" xmlns="http://www.w3.org/2000/svg"
 width="512.000000pt" height="512.000000pt" viewBox="0 0 512.000000 512.000000"
 preserveAspectRatio="xMidYMid meet">

<g transform="translate(0.000000,512.000000) scale(0.100000,-0.100000)"
fill="#000000" stroke="none">
<path d="M1183 4786 c-181 -44 -334 -202 -372 -384 -16 -75 -16 -3609 0 -3684
29 -137 140 -284 259 -341 124 -60 54 -57 1487 -57 919 0 1328 3 1365 11 187
39 348 200 387 387 8 37 11 510 11 1603 0 1286 -2 1555 -14 1582 -15 36 -926
863 -974 884 -40 18 -2075 17 -2149 -1z m1697 -574 c0 -296 6 -339 61 -443 38
-70 126 -157 197 -193 103 -52 138 -56 514 -56 l348 0 0 -1370 c0 -1325 -1
-1372 -19 -1408 -23 -46 -46 -67 -94 -87 -32 -13 -188 -15 -1327 -15 -1139 0
-1295 2 -1327 15 -48 20 -71 41 -94 87 -18 36 -19 90 -19 1818 0 1728 1 1782
19 1818 23 45 46 66 91 86 30 13 146 15 843 16 l807 0 0 -268z m686 -52 l356
-321 -310 3 c-296 3 -312 4 -338 24 -15 11 -37 33 -48 48 -20 26 -21 43 -24
297 -2 148 0 269 3 269 3 0 166 -144 361 -320z"/>
<path d="M2400 3345 c-168 -38 -339 -172 -414 -325 -66 -135 -84 -298 -39
-358 71 -96 195 -96 265 -1 12 15 23 55 29 99 12 94 38 149 101 205 59 53 123
75 218 75 106 0 164 -22 231 -89 88 -89 111 -192 67 -308 -18 -50 -44 -81
-187 -228 -184 -188 -227 -254 -256 -391 -32 -149 -10 -229 75 -272 56 -28 84
-28 140 1 57 28 86 78 92 161 3 35 15 81 28 106 13 26 89 113 179 205 166 169
201 219 242 340 33 97 34 259 2 360 -59 188 -217 347 -403 406 -86 28 -277 35
-370 14z"/>
<path d="M2495 1586 c-37 -16 -82 -68 -91 -102 -10 -38 2 -104 23 -133 38 -50
71 -66 133 -66 90 0 149 54 157 142 10 117 -115 206 -222 159z"/>
</g>
</svg>
