<?xml version="1.0" encoding="UTF-8"?>
<!DOCTYPE svg PUBLIC "-//W3C//DTD SVG 1.1//EN" "http://www.w3.org/Graphics/SVG/1.1/DTD/svg11.dtd">
<svg xmlns="http://www.w3.org/2000/svg" version="1.1" width="120px" height="120px" style="shape-rendering:geometricPrecision; text-rendering:geometricPrecision; image-rendering:optimizeQuality; fill-rule:evenodd; clip-rule:evenodd" xmlns:xlink="http://www.w3.org/1999/xlink">
<g><path style="opacity:0.99" fill="#f3f4fa" d="M 48.5,-0.5 C 55.8333,-0.5 63.1667,-0.5 70.5,-0.5C 96.5,6.16667 112.833,22.5 119.5,48.5C 119.5,55.8333 119.5,63.1667 119.5,70.5C 112.833,96.5 96.5,112.833 70.5,119.5C 63.1667,119.5 55.8333,119.5 48.5,119.5C 22.5,112.833 6.16667,96.5 -0.5,70.5C -0.5,63.1667 -0.5,55.8333 -0.5,48.5C 6.16667,22.5 22.5,6.16667 48.5,-0.5 Z"/></g>
<g><path style="opacity:1" fill="#333333" d="M 51.5,33.5 C 51.5,34.8333 51.5,36.1667 51.5,37.5C 56.8333,37.5 62.1667,37.5 67.5,37.5C 67.5,36.1667 67.5,34.8333 67.5,33.5C 68.8333,32.1667 70.1667,32.1667 71.5,33.5C 71.5,34.8333 71.5,36.1667 71.5,37.5C 73.8333,37.5 76.1667,37.5 78.5,37.5C 80.7157,38.2026 82.549,39.5359 84,41.5C 84.6667,55.1667 84.6667,68.8333 84,82.5C 82.8333,83.6667 81.6667,84.8333 80.5,86C 66.5,86.6667 52.5,86.6667 38.5,86C 36.9512,84.786 35.7845,83.286 35,81.5C 34.3333,68.1667 34.3333,54.8333 35,41.5C 36.3712,39.9586 37.8712,38.6253 39.5,37.5C 42.1667,37.5 44.8333,37.5 47.5,37.5C 47.5,36.1667 47.5,34.8333 47.5,33.5C 48.8333,32.1667 50.1667,32.1667 51.5,33.5 Z"/></g>
<g><path style="opacity:1" fill="#929396" d="M 47.5,33.5 C 47.5,34.8333 47.5,36.1667 47.5,37.5C 44.8333,37.5 42.1667,37.5 39.5,37.5C 41.6074,36.5318 43.9407,36.1984 46.5,36.5C 46.2627,35.209 46.596,34.209 47.5,33.5 Z"/></g>
<g><path style="opacity:1" fill="#8f9093" d="M 51.5,33.5 C 52.404,34.209 52.7373,35.209 52.5,36.5C 57.1667,36.5 61.8333,36.5 66.5,36.5C 66.2627,35.209 66.596,34.209 67.5,33.5C 67.5,34.8333 67.5,36.1667 67.5,37.5C 62.1667,37.5 56.8333,37.5 51.5,37.5C 51.5,36.1667 51.5,34.8333 51.5,33.5 Z"/></g>
<g><path style="opacity:1" fill="#909094" d="M 71.5,33.5 C 72.404,34.209 72.7373,35.209 72.5,36.5C 74.7354,36.2053 76.7354,36.5386 78.5,37.5C 76.1667,37.5 73.8333,37.5 71.5,37.5C 71.5,36.1667 71.5,34.8333 71.5,33.5 Z"/></g>
<g><path style="opacity:1" fill="#8a8b8d" d="M 40.5,42.5 C 42.6074,41.5318 44.9407,41.1984 47.5,41.5C 47.5,42.8333 47.5,44.1667 47.5,45.5C 46.596,44.791 46.2627,43.791 46.5,42.5C 44.5,42.5 42.5,42.5 40.5,42.5 Z"/></g>
<g><path style="opacity:1" fill="#909194" d="M 67.5,45.5 C 66.596,44.791 66.2627,43.791 66.5,42.5C 61.8333,42.5 57.1667,42.5 52.5,42.5C 52.7373,43.791 52.404,44.791 51.5,45.5C 51.5,44.1667 51.5,42.8333 51.5,41.5C 56.8333,41.5 62.1667,41.5 67.5,41.5C 67.5,42.8333 67.5,44.1667 67.5,45.5 Z"/></g>
<g><path style="opacity:1" fill="#8b8c8f" d="M 78.5,42.5 C 76.5,42.5 74.5,42.5 72.5,42.5C 72.7373,43.791 72.404,44.791 71.5,45.5C 72.404,44.791 72.7373,43.791 72.5,42.5C 74.5,42.5 76.5,42.5 78.5,42.5 Z"/></g>
<g><path style="opacity:1" fill="#e8e9ee" d="M 40.5,42.5 C 42.5,42.5 44.5,42.5 46.5,42.5C 46.2627,43.791 46.596,44.791 47.5,45.5C 48.8333,46.8333 50.1667,46.8333 51.5,45.5C 52.404,44.791 52.7373,43.791 52.5,42.5C 57.1667,42.5 61.8333,42.5 66.5,42.5C 66.2627,43.791 66.596,44.791 67.5,45.5C 68.8333,46.8333 70.1667,46.8333 71.5,45.5C 72.404,44.791 72.7373,43.791 72.5,42.5C 74.5,42.5 76.5,42.5 78.5,42.5C 79.4137,45.728 79.7471,49.0613 79.5,52.5C 66.1667,52.5 52.8333,52.5 39.5,52.5C 39.1872,48.9581 39.5206,45.6248 40.5,42.5 Z"/></g>
<g><path style="opacity:1" fill="#ecedf3" d="M 39.5,56.5 C 52.8333,56.5 66.1667,56.5 79.5,56.5C 79.6664,64.84 79.4997,73.1733 79,81.5C 66.2292,82.8213 53.3959,82.8213 40.5,81.5C 39.5301,73.222 39.1968,64.8886 39.5,56.5 Z"/></g>
</svg>
