<?xml version="1.0" encoding="UTF-8"?>
<!DOCTYPE svg PUBLIC "-//W3C//DTD SVG 1.1//EN" "http://www.w3.org/Graphics/SVG/1.1/DTD/svg11.dtd">
<svg xmlns="http://www.w3.org/2000/svg" version="1.1" width="120px" height="120px" style="shape-rendering:geometricPrecision; text-rendering:geometricPrecision; image-rendering:optimizeQuality; fill-rule:evenodd; clip-rule:evenodd" xmlns:xlink="http://www.w3.org/1999/xlink">
<g><path style="opacity:0.99" fill="#f2f3f9" d="M 48.5,-0.5 C 55.8333,-0.5 63.1667,-0.5 70.5,-0.5C 96.5,6.16667 112.833,22.5 119.5,48.5C 119.5,55.8333 119.5,63.1667 119.5,70.5C 112.833,96.5 96.5,112.833 70.5,119.5C 63.1667,119.5 55.8333,119.5 48.5,119.5C 22.5,112.833 6.16667,96.5 -0.5,70.5C -0.5,63.1667 -0.5,55.8333 -0.5,48.5C 6.16667,22.5 22.5,6.16667 48.5,-0.5 Z"/></g>
<g><path style="opacity:1" fill="#333333" d="M 35.5,34.5 C 42.4222,34.1878 49.2555,34.5212 56,35.5C 56.4998,44.1603 56.6664,52.8269 56.5,61.5C 49.2454,61.8132 42.0787,61.4799 35,60.5C 34.1977,51.7551 34.3643,43.0884 35.5,34.5 Z"/></g>
<g><path style="opacity:1" fill="#333333" d="M 63.5,34.5 C 70.175,34.3337 76.8417,34.5004 83.5,35C 84.8333,40.3333 84.8333,45.6667 83.5,51C 76.5079,51.4996 69.5079,51.6663 62.5,51.5C 62.2143,45.7414 62.5476,40.0748 63.5,34.5 Z"/></g>
<g><path style="opacity:1" fill="#f3f5fa" d="M 51.5,39.5 C 51.5,45.1667 51.5,50.8333 51.5,56.5C 47.5,56.5 43.5,56.5 39.5,56.5C 39.5,50.8333 39.5,45.1667 39.5,39.5C 43.5,39.5 47.5,39.5 51.5,39.5 Z"/></g>
<g><path style="opacity:1" fill="#919295" d="M 51.5,39.5 C 52.4896,45.31 52.8229,51.31 52.5,57.5C 47.9677,57.8182 43.6344,57.4849 39.5,56.5C 43.5,56.5 47.5,56.5 51.5,56.5C 51.5,50.8333 51.5,45.1667 51.5,39.5 Z"/></g>
<g><path style="opacity:1" fill="#f3f5fa" d="M 67.5,39.5 C 71.5,39.5 75.5,39.5 79.5,39.5C 79.5,41.8333 79.5,44.1667 79.5,46.5C 75.5,46.5 71.5,46.5 67.5,46.5C 67.5,44.1667 67.5,41.8333 67.5,39.5 Z"/></g>
<g><path style="opacity:1" fill="#919295" d="M 67.5,39.5 C 67.5,41.8333 67.5,44.1667 67.5,46.5C 71.5,46.5 75.5,46.5 79.5,46.5C 75.3656,47.4849 71.0323,47.8182 66.5,47.5C 66.1936,44.6146 66.5269,41.9479 67.5,39.5 Z"/></g>
<g><path style="opacity:1" fill="#333333" d="M 62.5,57.5 C 69.5079,57.3337 76.5079,57.5004 83.5,58C 84.8333,66.6667 84.8333,75.3333 83.5,84C 76.5079,84.4996 69.5079,84.6663 62.5,84.5C 62.5,75.5 62.5,66.5 62.5,57.5 Z"/></g>
<g><path style="opacity:1" fill="#919295" d="M 79.5,62.5 C 75.5,62.5 71.5,62.5 67.5,62.5C 67.5,68.1667 67.5,73.8333 67.5,79.5C 66.5104,73.69 66.1771,67.69 66.5,61.5C 71.0323,61.1818 75.3656,61.5151 79.5,62.5 Z"/></g>
<g><path style="opacity:1" fill="#f3f5fa" d="M 79.5,62.5 C 79.5,68.1667 79.5,73.8333 79.5,79.5C 75.5,79.5 71.5,79.5 67.5,79.5C 67.5,73.8333 67.5,68.1667 67.5,62.5C 71.5,62.5 75.5,62.5 79.5,62.5 Z"/></g>
<g><path style="opacity:1" fill="#333333" d="M 34.5,67.5 C 41.8333,67.5 49.1667,67.5 56.5,67.5C 56.666,72.8437 56.4994,78.1771 56,83.5C 49,84.8333 42,84.8333 35,83.5C 34.5006,78.1771 34.334,72.8437 34.5,67.5 Z"/></g>
<g><path style="opacity:1" fill="#f3f5fa" d="M 39.5,72.5 C 43.5,72.5 47.5,72.5 51.5,72.5C 51.5,74.8333 51.5,77.1667 51.5,79.5C 47.5,79.5 43.5,79.5 39.5,79.5C 39.5,77.1667 39.5,74.8333 39.5,72.5 Z"/></g>
<g><path style="opacity:1" fill="#8f9093" d="M 39.5,72.5 C 43.6344,71.5151 47.9677,71.1818 52.5,71.5C 52.8064,74.3854 52.4731,77.0521 51.5,79.5C 51.5,77.1667 51.5,74.8333 51.5,72.5C 47.5,72.5 43.5,72.5 39.5,72.5 Z"/></g>
</svg>
