<?xml version="1.0" encoding="UTF-8"?>
<!DOCTYPE svg PUBLIC "-//W3C//DTD SVG 1.1//EN" "http://www.w3.org/Graphics/SVG/1.1/DTD/svg11.dtd">
<svg xmlns="http://www.w3.org/2000/svg" version="1.1" width="120px" height="120px" style="shape-rendering:geometricPrecision; text-rendering:geometricPrecision; image-rendering:optimizeQuality; fill-rule:evenodd; clip-rule:evenodd" xmlns:xlink="http://www.w3.org/1999/xlink">
<g><path style="opacity:0.991" fill="#f3f4fa" d="M 48.5,-0.5 C 55.8333,-0.5 63.1667,-0.5 70.5,-0.5C 96.5,6.16667 112.833,22.5 119.5,48.5C 119.5,55.8333 119.5,63.1667 119.5,70.5C 112.833,96.5 96.5,112.833 70.5,119.5C 63.1667,119.5 55.8333,119.5 48.5,119.5C 22.5,112.833 6.16667,96.5 -0.5,70.5C -0.5,63.1667 -0.5,55.8333 -0.5,48.5C 6.16667,22.5 22.5,6.16667 48.5,-0.5 Z"/></g>
<g><path style="opacity:1" fill="#393939" d="M 53.5,32.5 C 65.4881,30.4041 73.3214,35.0707 77,46.5C 76.3392,56.041 78.8392,64.541 84.5,72C 84.3552,72.772 84.0219,73.4387 83.5,74C 67.2592,74.8242 51.0925,74.6575 35,73.5C 34.5507,70.9063 35.5507,68.9063 38,67.5C 40.9328,60.4927 42.2661,53.1593 42,45.5C 44.2999,39.7063 48.1332,35.373 53.5,32.5 Z"/></g>
<g><path style="opacity:1" fill="#f0f1f7" d="M 54.5,37.5 C 62.9241,35.6279 68.7574,38.6279 72,46.5C 71.7774,54.3958 73.2774,61.8958 76.5,69C 65.1667,69.6667 53.8333,69.6667 42.5,69C 45.9043,61.9405 47.4043,54.4405 47,46.5C 48.6416,42.6997 51.1416,39.6997 54.5,37.5 Z"/></g>
<g><path style="opacity:1" fill="#3f3f3f" d="M 53.5,79.5 C 55.6746,79.6822 57.6746,80.3489 59.5,81.5C 61.1043,81.0609 62.6043,80.3943 64,79.5C 67.2297,81.6018 67.063,83.7684 63.5,86C 60.8333,86.6667 58.1667,86.6667 55.5,86C 52.6793,84.3787 52.0126,82.212 53.5,79.5 Z"/></g>
</svg>
