<?xml version="1.0" encoding="UTF-8"?>
<!DOCTYPE svg PUBLIC "-//W3C//DTD SVG 1.1//EN" "http://www.w3.org/Graphics/SVG/1.1/DTD/svg11.dtd">
<svg xmlns="http://www.w3.org/2000/svg" version="1.1" width="120px" height="120px" style="shape-rendering:geometricPrecision; text-rendering:geometricPrecision; image-rendering:optimizeQuality; fill-rule:evenodd; clip-rule:evenodd" xmlns:xlink="http://www.w3.org/1999/xlink">
<g><path style="opacity:0.99" fill="#f3f4fa" d="M 48.5,-0.5 C 55.8333,-0.5 63.1667,-0.5 70.5,-0.5C 96.5,6.16667 112.833,22.5 119.5,48.5C 119.5,55.8333 119.5,63.1667 119.5,70.5C 112.833,96.5 96.5,112.833 70.5,119.5C 63.1667,119.5 55.8333,119.5 48.5,119.5C 22.5,112.833 6.16667,96.5 -0.5,70.5C -0.5,63.1667 -0.5,55.8333 -0.5,48.5C 6.16667,22.5 22.5,6.16667 48.5,-0.5 Z"/></g>
<g><path style="opacity:1" fill="#353535" d="M 81.5,47.5 C 81.5,50.8333 81.5,54.1667 81.5,57.5C 82.8333,57.5 84.1667,57.5 85.5,57.5C 86.6129,58.9464 86.7796,60.6131 86,62.5C 83.3576,69.4312 80.5242,76.2646 77.5,83C 63.9028,84.6121 50.2361,84.9455 36.5,84C 35.3333,82.8333 34.1667,81.6667 33,80.5C 32.3333,66.5 32.3333,52.5 33,38.5C 34.1667,37.3333 35.3333,36.1667 36.5,35C 42.1667,34.3333 47.8333,34.3333 53.5,35C 55.1667,37.3333 56.8333,39.6667 58.5,42C 65.1667,42.3333 71.8333,42.6667 78.5,43C 80.1412,44.129 81.1412,45.629 81.5,47.5 Z"/></g>
<g><path style="opacity:1" fill="#ebecf2" d="M 76.5,48.5 C 76.5,51.1667 76.5,53.8333 76.5,56.5C 66.985,56.1731 57.6517,56.5064 48.5,57.5C 44.9354,62.5223 42.9354,68.189 42.5,74.5C 44.3904,74.7035 45.8904,74.0368 47,72.5C 48.3094,68.9009 49.8094,65.4009 51.5,62C 61.1609,61.5002 70.8276,61.3335 80.5,61.5C 78.9053,67.2825 76.9053,72.9492 74.5,78.5C 61.9376,79.821 49.4376,79.821 37,78.5C 36.1674,65.8202 36.334,53.1535 37.5,40.5C 42.1471,39.2209 46.8138,39.2209 51.5,40.5C 52.711,42.4219 54.0443,44.2552 55.5,46C 62.1667,46.3333 68.8333,46.6667 75.5,47C 76.056,47.3826 76.3893,47.8826 76.5,48.5 Z"/></g>
<g><path style="opacity:1" fill="#939397" d="M 81.5,47.5 C 82.4767,50.2869 82.81,53.2869 82.5,56.5C 83.791,56.2627 84.791,56.596 85.5,57.5C 84.1667,57.5 82.8333,57.5 81.5,57.5C 81.5,54.1667 81.5,50.8333 81.5,47.5 Z"/></g>
<g><path style="opacity:1" fill="#929396" d="M 76.5,48.5 C 77.4767,51.2869 77.81,54.2869 77.5,57.5C 67.8333,57.5 58.1667,57.5 48.5,57.5C 57.6517,56.5064 66.985,56.1731 76.5,56.5C 76.5,53.8333 76.5,51.1667 76.5,48.5 Z"/></g>
</svg>
