<?xml version="1.0" encoding="UTF-8"?>
<!DOCTYPE svg PUBLIC "-//W3C//DTD SVG 1.1//EN" "http://www.w3.org/Graphics/SVG/1.1/DTD/svg11.dtd">
<svg xmlns="http://www.w3.org/2000/svg" version="1.1" width="120px" height="120px" style="shape-rendering:geometricPrecision; text-rendering:geometricPrecision; image-rendering:optimizeQuality; fill-rule:evenodd; clip-rule:evenodd" xmlns:xlink="http://www.w3.org/1999/xlink">
<g><path style="opacity:0.99" fill="#f3f4fa" d="M 48.5,-0.5 C 55.8333,-0.5 63.1667,-0.5 70.5,-0.5C 96.5,6.16667 112.833,22.5 119.5,48.5C 119.5,55.8333 119.5,63.1667 119.5,70.5C 112.833,96.5 96.5,112.833 70.5,119.5C 63.1667,119.5 55.8333,119.5 48.5,119.5C 22.5,112.833 6.16667,96.5 -0.5,70.5C -0.5,63.1667 -0.5,55.8333 -0.5,48.5C 6.16667,22.5 22.5,6.16667 48.5,-0.5 Z"/></g>
<g><path style="opacity:1" fill="#393939" d="M 55.5,26.5 C 64.809,25.6473 70.1423,29.814 71.5,39C 74.3053,39.4415 76.9719,38.9415 79.5,37.5C 88.4015,39.637 91.2348,44.9704 88,53.5C 83.8738,55.2023 82.5404,58.2023 84,62.5C 89.5386,65.88 90.8719,70.5467 88,76.5C 86.786,78.0488 85.286,79.2155 83.5,80C 79.0977,80.0641 74.7644,80.2308 70.5,80.5C 68.3263,92.0477 62.1596,95.0477 52,89.5C 51.0068,86.692 50.1734,83.8587 49.5,81C 48.2713,80.2189 46.938,79.7189 45.5,79.5C 34.5717,82.727 29.4051,78.727 30,67.5C 31,65.1667 32.6667,63.5 35,62.5C 35.6667,60.5 35.6667,58.5 35,56.5C 27.9189,51.0337 27.7523,45.2004 34.5,39C 39.2374,38.8883 43.9041,38.7216 48.5,38.5C 49.3307,33.4891 51.6641,29.4891 55.5,26.5 Z"/></g>
<g><path style="opacity:1" fill="#ecedf3" d="M 57.5,32.5 C 59.7224,32.178 61.5557,32.8446 63,34.5C 63.0173,39.3744 65.184,42.8744 69.5,45C 72.8546,45.5459 76.1879,45.3792 79.5,44.5C 81.8547,44.5522 83.188,45.7189 83.5,48C 82.0557,50.4485 80.2224,52.6152 78,54.5C 76.2356,60.6935 77.9023,65.6935 83,69.5C 83.5946,70.8989 83.4279,72.2322 82.5,73.5C 78.2359,73.7693 73.9026,73.936 69.5,74C 65.0145,76.4625 62.6812,80.2958 62.5,85.5C 57.3211,87.1717 54.8211,85.1717 55,79.5C 51.0226,73.2091 45.6893,71.8757 39,75.5C 37.0124,74.7144 35.8457,73.2144 35.5,71C 36.9443,68.5515 38.7776,66.3848 41,64.5C 42.8884,58.2145 41.2218,53.2145 36,49.5C 35.4054,48.1011 35.5721,46.7678 36.5,45.5C 40.4334,45.1699 44.4334,45.0033 48.5,45C 49.8333,44.3333 51.1667,43.6667 52.5,43C 54.592,39.6652 56.2586,36.1652 57.5,32.5 Z"/></g>
<g><path style="opacity:1" fill="#393939" d="M 55.5,47.5 C 62.6625,46.3311 67.8292,48.9978 71,55.5C 72.6676,62.6651 70.1676,67.8318 63.5,71C 57.3424,72.6716 52.5091,70.8383 49,65.5C 45.8203,57.5325 47.987,51.5325 55.5,47.5 Z"/></g>
<g><path style="opacity:1" fill="#ebecf2" d="M 56.5,53.5 C 64.8068,53.2804 67.1402,56.7804 63.5,64C 57.7867,67.0594 54.4533,65.3927 53.5,59C 53.8627,56.8077 54.8627,54.9744 56.5,53.5 Z"/></g>
</svg>
