<?xml version="1.0" encoding="UTF-8"?>
<!DOCTYPE svg PUBLIC "-//W3C//DTD SVG 1.1//EN" "http://www.w3.org/Graphics/SVG/1.1/DTD/svg11.dtd">
<svg xmlns="http://www.w3.org/2000/svg" version="1.1" width="120px" height="120px" style="shape-rendering:geometricPrecision; text-rendering:geometricPrecision; image-rendering:optimizeQuality; fill-rule:evenodd; clip-rule:evenodd" xmlns:xlink="http://www.w3.org/1999/xlink">
<g><path style="opacity:0.991" fill="#f3f4fa" d="M 48.5,-0.5 C 55.8333,-0.5 63.1667,-0.5 70.5,-0.5C 96.5,6.16667 112.833,22.5 119.5,48.5C 119.5,55.8333 119.5,63.1667 119.5,70.5C 112.833,96.5 96.5,112.833 70.5,119.5C 63.1667,119.5 55.8333,119.5 48.5,119.5C 22.5,112.833 6.16667,96.5 -0.5,70.5C -0.5,63.1667 -0.5,55.8333 -0.5,48.5C 6.16667,22.5 22.5,6.16667 48.5,-0.5 Z"/></g>
<g><path style="opacity:1" fill="#3a3a3a" d="M 47.5,34.5 C 59.6494,33.815 65.1494,39.4817 64,51.5C 60.2922,57.8505 54.7922,60.3505 47.5,59C 36.9508,50.7192 36.9508,42.5526 47.5,34.5 Z"/></g>
<g><path style="opacity:1" fill="#3c3c3c" d="M 68.5,34.5 C 79.271,37.7143 82.1043,44.381 77,54.5C 75.0016,56.6632 72.6682,58.3298 70,59.5C 68.2676,59.2664 67.4342,58.2664 67.5,56.5C 68.9667,54.5022 70.8001,52.8355 73,51.5C 75.9954,45.7875 74.4954,41.7875 68.5,39.5C 67.3336,37.8327 67.3336,36.166 68.5,34.5 Z"/></g>
<g><path style="opacity:1" fill="#edeef3" d="M 48.5,39.5 C 59.1323,39.5933 61.7989,44.0933 56.5,53C 47.9454,55.7887 44.112,52.622 45,43.5C 46.3756,42.2949 47.5423,40.9616 48.5,39.5 Z"/></g>
<g><path style="opacity:1" fill="#373737" d="M 38.5,64.5 C 47.8393,64.3335 57.1726,64.5002 66.5,65C 73.6699,69.1594 76.1699,75.3261 74,83.5C 72.6667,84.8333 71.3333,84.8333 70,83.5C 69.6667,80.1667 69.3333,76.8333 69,73.5C 68.1667,72.6667 67.3333,71.8333 66.5,71C 61.6093,69.8859 56.6093,69.3859 51.5,69.5C 39.1495,66.3673 33.3161,71.034 34,83.5C 32.9505,84.5171 31.7839,84.6838 30.5,84C 27.2838,74.9469 29.9505,68.4469 38.5,64.5 Z"/></g>
<g><path style="opacity:1" fill="#3a3a3a" d="M 78.5,64.5 C 88.3484,67.4991 91.6817,73.9991 88.5,84C 87.2161,84.6838 86.0495,84.5171 85,83.5C 84.6667,80.1667 84.3333,76.8333 84,73.5C 82.5867,71.5864 80.7534,70.2531 78.5,69.5C 77.3336,67.8327 77.3336,66.166 78.5,64.5 Z"/></g>
</svg>
